/* XPM */
static char *xpm_[] = {
/* columns rows colors chars-per-pixel */
"64 64 191 2 ",
"   c #6F4D3D",
".  c #5F3A42",
"X  c #5D3744",
"o  c #613744",
"O  c #623A44",
"+  c #5E514F",
"@  c #5C4F52",
"#  c #5D5251",
"$  c #6C4341",
"%  c #77454B",
"&  c #7B454B",
"*  c #7C4B49",
"=  c #784848",
"-  c #66534F",
";  c #69554E",
":  c #6B5B4D",
">  c #65594E",
",  c #715D4C",
"<  c #624F51",
"1  c #645251",
"2  c #685450",
"3  c #756B45",
"4  c #7B6B44",
"5  c #726448",
"6  c #7C7542",
"7  c #6B644A",
"8  c #9C3E3E",
"9  c #A53D3E",
"0  c #A93B3C",
"q  c #AF3C37",
"w  c #B13D3C",
"e  c #9C403E",
"r  c #AE4937",
"t  c #A6403D",
"y  c #AC423A",
"u  c #AE4A38",
"i  c #A94A39",
"p  c #B24D36",
"a  c #B24139",
"s  c #B14B38",
"d  c #AD5236",
"f  c #AD5A36",
"g  c #B35435",
"h  c #B55B33",
"j  c #B05138",
"k  c #B95931",
"l  c #8D673F",
"z  c #946B3C",
"x  c #93663D",
"c  c #847B3D",
"v  c #8B7D3E",
"b  c #9F7C36",
"n  c #9A7439",
"m  c #B9642F",
"M  c #BC6C2E",
"N  c #BE732B",
"B  c #BE7B2A",
"V  c #B76332",
"C  c #B96331",
"Z  c #BA6830",
"A  c #F47A1D",
"S  c #DD472F",
"D  c #DD4C2E",
"F  c #DD542E",
"G  c #DD5C2C",
"H  c #DE4732",
"J  c #D64A33",
"K  c #DB4A32",
"L  c #DC5431",
"P  c #E1472F",
"I  c #E24B2E",
"U  c #E0542D",
"Y  c #E25C2C",
"T  c #E14931",
"R  c #E24631",
"E  c #E15931",
"W  c #C16B2D",
"Q  c #DF692B",
"!  c #DF612E",
"~  c #C1752C",
"^  c #C27C29",
"/  c #DB7626",
"(  c #DE7A25",
")  c #E26229",
"_  c #E36F26",
"`  c #E67625",
"'  c #EC7623",
"]  c #E47B25",
"[  c #E47229",
"{  c #9E3F40",
"}  c #A43D40",
"|  c #A83B40",
" . c #82454B",
".. c #824A48",
"X. c #814C47",
"o. c #9C4041",
"O. c #845345",
"+. c #8A5B42",
"@. c #A34242",
"#. c #827342",
"$. c #837840",
"%. c #B6AA1E",
"&. c #BEBE1F",
"*. c #8C843B",
"=. c #8F8A36",
"-. c #958C36",
";. c #9C9533",
":. c #959035",
">. c #AD8F2E",
",. c #A29E2E",
"<. c #B49C29",
"1. c #B2962B",
"2. c #AA8B30",
"3. c #A39B30",
"4. c #A8A729",
"5. c #BAA526",
"6. c #B7A827",
"7. c #AFB026",
"8. c #BCBB21",
"9. c #B7B524",
"0. c #CF9D1F",
"q. c #D19F1F",
"w. c #EA891E",
"e. c #E4971E",
"r. c #E69B1C",
"t. c #CDA31E",
"y. c #D2A41D",
"u. c #D5AB1B",
"i. c #CCBF1C",
"p. c #D8B617",
"a. c #DCBD16",
"s. c #D7B219",
"d. c #D9B319",
"f. c #DAB918",
"g. c #EAA418",
"h. c #EBB416",
"j. c #EBBB14",
"k. c #E7B018",
"l. c #C68526",
"z. c #C98B25",
"x. c #C48228",
"c. c #C68727",
"v. c #CB9422",
"b. c #CD9A21",
"n. c #E58222",
"m. c #E58B21",
"M. c #C7AA22",
"N. c #C2B321",
"B. c #BFC11E",
"V. c #DBDF0F",
"C. c #C3C31D",
"Z. c #CBCC19",
"A. c #CBC718",
"S. c #DDC314",
"D. c #D1C61A",
"F. c #DFC914",
"G. c #CFD216",
"H. c #D3D415",
"J. c #DAD413",
"K. c #D6DA13",
"L. c #DCDC11",
"P. c #D2D419",
"I. c #E8CC0F",
"U. c #E5D50E",
"Y. c #EFD40E",
"T. c #E6DB0D",
"R. c #E9DD0C",
"E. c #F0D60E",
"W. c #F1DD0B",
"Q. c #E0C513",
"!. c #EDC212",
"~. c #E2CC12",
"^. c #F1CB10",
"/. c #E4D210",
"(. c #DEE30E",
"). c #DDE210",
"_. c #EEEC07",
"`. c #E4E30D",
"'. c #EAE30B",
"]. c #E5EB0C",
"[. c #EDEB09",
"{. c #F2EE07",
"}. c #F2E30A",
"|. c #F2EB09",
" X c #F2E407",
".X c #EEF307",
"XX c #ECF308",
"oX c #F2F406",
"OX c #F3F905",
"+X c #F1F208",
"@X c #E1E110",
/* pixels */
"A I 9 & X @ 1 1 1 1 1 1 1 1 1 1 # - - 1 1 1 1 1 1 1 1 - 1 1 1 1 1 # - - - 1 1 1 1 1 1 1 1 1 1 1 1 1 # - 1 1 - 1 1 1 1 1 1 1 1 1 ",
"A I 9 & o @ J K K K K K K K J 9 2 / D K K K K K K K K K K K K K e 1 ` K K K K K K K K K K K K K J 9 2 / K K H K K K K K K K K K ",
"I w 0 0 0 9 0 0 0 0 0 0 0 0 9 & - K 0 0 0 0 0 0 0 0 0 0 0 0 0 9 % # S q 0 0 0 0 0 0 0 0 0 0 0 0 9 & 1 K 0 0 0 0 0 0 0 0 0 0 0 0 ",
"T q 0 0 0 0 0 0 0 0 0 0 0 0 9 & - K 0 0 0 0 0 0 0 0 0 0 0 0 0 0 % # H q 0 0 0 0 0 0 0 0 0 0 0 0 9 & 1 K 0 0 0 0 0 0 0 0 0 0 0 0 ",
"T q 0 0 0 0 0 0 0 0 0 0 0 0 9 & - K 0 0 0 0 0 0 0 0 0 0 0 0 0 9 % # H q 0 0 0 0 0 0 0 0 0 0 0 0 9 & 2 K 0 0 0 0 0 0 0 0 0 0 0 0 ",
"T w 0 0 0 0 0 0 0 0 0 0 0 0 9 & 1 K 0 0 0 0 0 0 0 0 0 0 0 0 0 0 % # H q r 0 0 0 0 0 0 0 0 0 0 0 9 & 2 K 0 0 0 0 0 0 0 0 0 0 0 0 ",
"T q 0 0 0 0 0 0 0 0 0 0 0 0 9 & - J 0 0 0 0 0 0 y C 0 0 0 0 0 0 % # H l.S.M 0 0 0 0 0 0 0 0 0 0 9 & - K 0 0 0 0 0 0 0 0 0 0 0 0 ",
"T q 0 0 0 0 0 0 0 0 9 0 0 0 9 & - K 9 9 0 0 0 0 x.U.f.t 0 | 0 0 % # g.R.U.M 0 0 0 0 0 0 0 0 0 0 } % - K | 0 0 0 0 0 0 0 0 0 0 0 ",
"} & % % % % % % % % % % % % % O 1 8 % & % % % % * 5.L.5.% % % % O 7.R.J.n % % % % % % % % % % % % O 1 e % % % % % % % % % & % % ",
"1 # 1 1 # 1 # # # 1 1 1 1 # # # # 1 # 1 # # # # # # 8.K.:.1 # # 4 K.H.:.1 1 # 1 # # # # 1 # # # # # # 1 # # 1 # # 1 # # # # # # ",
"H H H L G U i : 5 w.Y Y Y Y ) ) ) Y Y Y U U T D @.- w.W.j.E H H ` W.W.[ T U D F G h $.g.n.n.n.n.w.w.m.n.n.n.n.n.n.` f 4 ' D H H ",
"q q a d.T.U.i.7.9.j.Q.~.~.U.T.T.T.U./.~.Q.a.a.Q.D.&.g././.m q q s ~.T.Q.~.~.U.R.R.J.G.!.Q././.U./.~.~.~.~.U.T.T.R.R.J.K.h.W q q ",
"0 0 0 y.'.'.`.).].{.{.+XoXOXoXoXoX+X+X{.[.+XoXoXXXXX+X+X_.u.s 0 0 ~.[.'.'.'.'.'.'.`.(.W.R.R.R.R.R.R.R.R.R.'.'.R.R.R.H.L.!.v.0 0 ",
"0 0 0 r /.[.`.].XXoXoXoXOXOXOXOXoX+X+XoXoXOXoX+XXXXX+XoX+X/.h 0 y T.'.R.'.'.R.U.U.L.V.W.R.R.R.'.R.R.'.`.R.R.'.R.U.T.L.A.g.M 0 0 ",
"0 0 0 0 g S.`.].XXoXoXoXoXoXOXOXOXoXoXoXoXOXOXoX[.XX+X+X+XU.h 0 g `.'.R.R.'.'.'.'.`.).}.R.'.'.R.R.'.'.'.'.R.R.R.U.~.5.4.[ q 0 0 ",
"0 0 0 0 y ^ N.].XXOXOXoXOXOXoXOXOXOXOXOXOXOXOXOXOXXX{.+X.XU.m 0 j R.'.'.'.'.'.'.`.`.(.}.'.'.'.R.R.R.'.'.'.R.R./.f.h % > U q 0 0 ",
"9 9 9 9 9 h l B.].OXoXoXoXoXoXOXOXOXOXOXOXOXOXOX.XXX|..X[.S.j 9 d /.~.F./.R.'.[.[.`.`.}.'.'.'.'.'.R./.U.'.[.T.f.d 9 % 6 r.y 9 9 ",
"& & & & & +.%.c H..XXX.X.XXX.XXX.X+XOXOXOXOX.X.X[.).'..XJ.z & & x D.5.& X.O.+.z 5.A.L.'.`.`.`.`.`.`.`.`.[.L.2.1.z & O : B  .& & ",
"; 1 - - 1 4 ;.4 c )..XXXXX.XOXXXXX.X.XXX.X.XXX).A.4.A.].G.2 1 1 3 G.8.- - - - - - : c 7.H.`.(.K.).).).(.H.;.; v #.- - , ,., - - ",
"' K K K F h.m.K K e.+XOXOXOXOX.XXX+X+X|.R.j.n.Q L ! Y.}.!.F K K i H.^.G K K K K K K K K K G n.r.r.v.7.k.G K K m.] K K K n.K K K ",
"S q 0 0 0 p r 0 q p f.[.oXoX[.`.).Y.s.z.M g y 0 0 z.R.R.u.r 0 | * C.!.v.h g g s r 0 0 0 0 0 0 y t ..: K 0 0 0 m V 0 0 0 0 0 0 0 ",
"P q 0 0 0 g h 0 0 0 ^ s.F.'.T.N.$.! r y y 0 0 0 C /.'.U.t.r 0 9 * ,.E.T.[.[.R.'.~.z.h r 0 0 0 0 9 & - K 0 0 0 0 ~ m 0 0 0 0 0 0 ",
"P q 0 0 0 0 g 0 0 0 p y.u.l.d & - K 0 0 y ^ v.a.|.oXoX~.m 0 0 9 % 3 !.T.R.'.'.'.'.'./.u.x.g 0 0 9 & 2 K 0 0 0 0 V h 0 0 0 0 0 0 ",
"P q 0 0 0 h v.r 0 0 0 u V 0 9 & - K 0 C S.'.OXOXOXoX'.x.0 0 0 0 % # _ S.R.'.'.'.'.'.'.'.T.Q.l.u 9 & - K 0 0 0 y ^ r 0 0 0 0 0 0 ",
"P q 0 0 0 g M 0 0 0 0 0 0 0 9 & ; ] a.[.oXoXoXoX+XU.x.y 0 0 0 0 % # H s y.T.'.'.'.'.'.'.'.'.U.u.M X.- K 0 0 0 0 y 0 0 0 0 0 0 0 ",
"T q 0 0 0 t r 0 0 0 0 0 0 0 9 x C. X+X+X+X+X+X+X+Xv.9 0 0 0 0 0 % # H q 0 M S._.'.'.'.'.R.'.R./.u.<.: K 0 0 0 r N y 0 0 0 0 0 0 ",
"9 & % % % % % % % % % % % z N.H.`.+XXXXXXXXXXXXXL.O.% % % % % % . # 8 % % % O.N.[.].`.`.`.`.@X@XD.%.3 o.% % % % +.% % % % % % % ",
"1 1 # # # # # # # # # - ;.K.(.L.]..XXX[.].[.XX).*.# # # # # # # # # - *.=.1 1 + ,.].].(.).).).(.8.3 # - # # # # # # 1 # # # - - ",
"T H H H H H { 1 - ` T _ j.'. X}. X|. XW.W.W.W.r.f :.n.I H H H T H H T h.h.D H H K v.].{.Y.W. X^.U H H H H H H H S H e - ' D H T ",
"q q q q q q & # - L 0 Z v.y.[.[.R.'.R.R.T.T.u.w 1.K.!.a q q q q q q ~ R.a.p w q 0 ..9.{.'.'.[.q.a q q q q q q q q 0 & # D w q q ",
"0 0 0 0 0 0 % # 1 K 0 p g 0 z.~.'.R.R.R.T.b.y t 5.].|.~ 0 0 0 0 0 r F.'.T.~.M 0 9 & : !.'.'.p.^ 0 0 0 0 0 0 0 0 0 0 % 1 H q 0 0 ",
"0 0 0 0 0 0 % # - K 0 h N u 0.^ ~.U.T.S.M 0 q b.].XXOX/.z.h 0 0 g y.{.+X+X_.T.x.t  .- L u.s.r 0 y 0 0 0 0 0 0 0 0 0 % 1 H w 0 0 ",
"0 0 0 0 0 0 % # 1 K 0 y M y C y N u.^ y 0 y y.[.].].OX_.R./.M N s.'.oXoXoX'.+X[.b.X.- K y r 0 C z.0 0 0 0 0 0 0 0 0 % 1 H q 0 0 ",
"0 0 0 0 0 0 % # - K 0 r c.r 0 0 0 0 0 0 0 0.'.[.].(.OX+X'.R.~ h d.[.+X.X'.S.T.oX'.>.; K 0 0 0 h z.y 0 0 0 0 0 0 0 9 % 1 H q 0 0 ",
"9 9 9 9 9 9 & # 1 J 9 i V 9 9 9 9 9 9 9 u U./.c.l H.{.oX[.U.y t f.OXoX+X'.F.g y.R.5.; J 9 9 9 9 d } 9 9 9 9 9 9 9 9 % # K 0 9 9 ",
"& & & & & & O # 1 t & O.n & & & & & & & & b X.&   K.oXOXoXL.& & i.oXXX`.`..X2.& +.$ - @.& & & O.b ..& & & & & & & & . # 9  .& & ",
"; - - - - - - 1 1 - - : 3.#.1 1 # ; 1 1 1 1 1 2 ;.L.OXOX.XZ.1 1 C.XX].H.Z.XX].5 - - 1 - - - - - ; 1 # - 1 1 1 1 1 1 2 1 - 1 1 1 ",
"` K K K K K J J K K K K L K J 9 ; / D K K K K G h.}.OX}.{.h.K K t.XX+X!.j.E.OX!.F K K K J K K J J t ; ( K K K K K K K K K K K K ",
"T q 0 0 0 0 0 0 0 0 0 0 0 0 0 & - J q 0 0 0 0 m '.+X[.[.[.S.y 0 b ].|.d.M b.[.T.v.0 0 0 0 0 0 0 9 & - K 0 0 0 0 0 0 0 0 0 0 0 0 ",
"T q 0 0 0 0 0 0 0 0 0 0 0 0 9 & - K 0 0 0 0 0 u.+X'.R.+X'.s.0 | +.(.+X/.s y v.a.Q.N 0 0 0 0 0 0 9 % - K 0 0 0 0 0 0 0 0 0 0 0 0 ",
"R q 0 0 0 0 0 0 0 0 0 0 0 0 9 & - K 0 0 0 0 g '.'.q.U.[.T.y.0 0 % K.oXR.Z 0 y u x.v.r 0 0 0 0 0 9 & - K 0 0 0 0 0 0 0 0 0 0 0 0 ",
"T q 0 0 0 0 0 0 0 0 0 0 0 0 9 & - K 0 0 0 0 u.[.s.u T.+XR.l.0 0 % &.{.[.0.0 0 0 0 s 0 0 0 0 0 0 9 & 2 K 0 0 0 0 0 0 0 0 0 0 0 0 ",
"R q 0 0 0 0 0 0 0 0 0 0 0 0 9 & - K 0 0 0 r u.v.r 0 T.+XT.C 0 0 % *. X_.U.s 0 0 0 0 0 0 0 0 0 0 9 & - K 0 0 0 0 0 0 0 0 0 0 0 0 ",
"T q 0 0 0 0 0 0 0 0 0 0 0 0 9 & - K 0 0 0 0 y 0 0 0 T.+XT.s 9 | % : E.+X'.h 0 0 0 9 0 9 0 9 0 0 9 & 1 K 0 0 0 0 0 0 0 0 0 0 0 0 ",
"} % % % % % % % % % % % % % % o 1 8 % % % O.% % % % T.oXL.* % % . # M..X.X1.% % % % % % % % % % % O 1 { % % % % % % % % % % % % ",
"- 1 # # # # # # # + # # 1 # # # # 1 1 1 3 4.5 # # # L.OXK.1 < # # # 4 XX.XP.- # + # # 1 1 1 1 1 # # # 1 1 # # 1 1 # 1 # # + 1 # ",
"H H H T T T 8 1 2 ` H H T H H H T T H T T Y H H } -  XOXW.I H H H H H '.+X}.G H K 9 ; ` S H H H H H S H H S H H H H 8 - ' I H H ",
"q q q q q q & # - K q q q q q q q q q q q y k q = : W.oXR.s q q 0 q q Q.{._.W q 0  .- K q q q q q q q q q q q q q q % # I w q q ",
"0 0 0 0 0 0 % # 1 K 0 0 0 0 0 0 0 0 0 0 0 h z.t % 4.{.oX/.r 0 0 0 0 0 y.[.[.u.0 9 & 1 K 0 0 0 0 0 0 0 0 0 0 0 0 0 0 % # H q 0 0 ",
"0 0 0 0 0 0 % # 1 K 0 0 0 0 0 0 0 0 0 0 0 0 r 0 % C.+XoX~.y 0 0 0 0 0 ^ '.[.~.p 9 & 1 K 0 0 0 0 0 0 0 0 0 0 0 0 0 0 % # H q 0 0 ",
"0 0 0 0 0 0 % # 1 K 0 0 0 0 0 0 0 0 0 0 0 0 0 0 % Z.{.+Xa.0 0 0 0 0 0 C '.+X'.m 9 & 1 K 0 0 0 0 0 0 0 0 0 0 0 0 0 0 % 1 H q 0 0 ",
"0 0 0 0 0 0 % # 1 K 0 0 0 0 0 0 0 0 0 0 0 0 0 0 % H.oX.Xu.0 0 0 0 0 0 g R.+X[.b.} & 1 K 0 0 0 0 0 0 0 0 0 0 0 0 0 9 % # H q 0 0 ",
"9 9 9 9 9 9 % # 1 J 9 9 9 9 9 9 9 9 9 9 9 9 9 9 * A.OX.Xb.9 } 9 9 9 9 y /._.'.S.} % 1 J 9 9 9 9 9 9 9 9 9 9 9 9 9 9 % + K 0 9 9 ",
"& & & & & & O # 1 9  .& & & & & & & & & & & & %   G.[.`.>.& & & & & & % D.`.`.J.* o 1 9 & & & & & & & & & & & & & & O # 9  .& & ",
"; 2 1 1 1 - - 1 - 2 2 2 - - 1 1 # - 1 1 1 1 1 - : ).).L.-.1 1 1 1 # ; - 8.(.(.).4 - 1 - - - - - - 1 # - - 1 1 1 1 1 1 1 - 1 1 - ",
"' K K K K K K K K K K K J K J 9 2 / K K K K K K Q |.}.R.Q K K K 8 - ` K e.}.W.Y.( K K K K K K K J } > / K K K K K K K K K K K K ",
"I q 0 0 0 0 0 0 0 0 0 0 0 0 0 & - D 0 0 0 0 0 q 0 Q.R.T.~ 0 0 0 = 1 K q m S.a.u.s 0 0 0 0 0 0 0 9 & - J 0 0 0 0 0 0 0 0 0 0 0 0 ",
"T q 0 0 0 0 0 0 0 0 0 0 0 0 } & 1 K 0 0 0 0 0 0 0 N p.~.u.g 0 0 % 1 T q N b.h y 0 0 0 0 0 0 0 0 9 & - K 0 0 0 0 0 0 0 0 0 0 0 0 ",
"T q 0 0 0 0 0 0 0 0 0 0 0 0 9 & - K 0 0 0 0 0 0 0 y p r h 0 0 0 % # H q N p.h 0 0 0 0 0 0 0 0 0 9 & 1 K 0 0 0 0 0 0 0 0 0 0 0 0 ",
"R q 0 0 0 0 0 0 0 0 0 0 0 0 9 & 1 K 0 0 0 0 0 0 0 0 0 0 0 0 0 9 % # H q g F.h 0 0 0 0 0 0 0 0 0 9 & - K 0 0 0 0 0 0 0 0 0 0 0 0 ",
"I q 0 0 0 0 0 0 0 0 0 0 0 0 9 & - K 0 0 0 0 0 0 0 0 0 0 0 0 0 0 % # H q g U.~ 0 0 0 0 0 0 0 0 0 9 & 1 K 0 0 0 0 0 0 0 0 0 0 0 0 ",
"T q 0 0 0 0 0 0 0 0 0 0 0 0 9 & - K 0 9 0 0 0 0 0 0 0 0 0 9 0 | % # H q 0 0.^ 0 0 0 0 0 0 0 0 0 9 & - K 0 0 0 0 0 0 0 0 0 0 0 0 ",
"8 & % % % % % % % % % % % % & O # e % % % % % % % % % % % % % % . # 8 & & <.<.% % % % % % % % % % O # { % % % % % % % % % % % % ",
"1 # # # # # # # # # # # # # # # # # # # # # # # # # # # # # # # # # 1 # # 7 6 # # # # # # # # # # # # 1 # # # # # # # # # # # # "
};
