/* XPM */
static char *xpm_[] = {
/* columns rows colors chars-per-pixel */
"64 64 202 2 ",
"   c #74513D",
".  c #5E3A42",
"X  c #5D3744",
"o  c #613944",
"O  c #603745",
"+  c #5E4E4F",
"@  c #5D514F",
"#  c #5C4F52",
"$  c #5D5251",
"%  c #664B47",
"&  c #77454B",
"*  c #7A454B",
"=  c #7D4B49",
"-  c #7C4646",
";  c #66534F",
":  c #69564E",
">  c #6B5C4C",
",  c #66594E",
"<  c #715D4B",
"1  c #785849",
"2  c #614E50",
"3  c #645251",
"4  c #695450",
"5  c #635950",
"6  c #7B4650",
"7  c #6D6448",
"8  c #736547",
"9  c #746A45",
"0  c #746549",
"q  c #7D6E45",
"w  c #7D7141",
"e  c #9D3F3E",
"r  c #A53D3D",
"t  c #AA3B3C",
"y  c #B13C3B",
"u  c #9C403F",
"i  c #AC4537",
"p  c #AE4937",
"a  c #A5413D",
"s  c #AC433A",
"d  c #AE4939",
"f  c #B14D36",
"g  c #B14439",
"h  c #B14C38",
"j  c #AC5538",
"k  c #B35335",
"l  c #B55B33",
"z  c #BA5C32",
"x  c #B95535",
"c  c #8D623E",
"v  c #816035",
"b  c #956B3B",
"n  c #92653D",
"m  c #857B3D",
"M  c #897A3E",
"N  c #9C7736",
"B  c #B9662F",
"V  c #BC6C2E",
"C  c #B5642F",
"Z  c #BE722D",
"A  c #BE7A2B",
"S  c #B86131",
"D  c #B76631",
"F  c #A27D36",
"G  c #F47A1D",
"H  c #DD4B2F",
"J  c #DD472F",
"K  c #DC5B2D",
"L  c #DE542F",
"P  c #DC4732",
"I  c #D64A33",
"U  c #DC4A32",
"Y  c #DB5032",
"T  c #E1472F",
"R  c #E24B2E",
"E  c #E1552E",
"W  c #E15D2D",
"Q  c #E14631",
"!  c #E14931",
"~  c #E15230",
"^  c #DE622C",
"/  c #DE692B",
"(  c #DE6D27",
")  c #C1752A",
"_  c #C37B29",
"`  c #DB7626",
"'  c #DD7528",
"]  c #DD7826",
"[  c #C16D2D",
"{  c #E3632A",
"}  c #E16B2A",
"|  c #E36D27",
" . c #E57525",
".. c #EC7624",
"X. c #E37B25",
"o. c #E77725",
"O. c #9F3F40",
"+. c #A43C40",
"@. c #A93C40",
"#. c #824B47",
"$. c #82444A",
"%. c #824D49",
"&. c #9B4141",
"*. c #855145",
"=. c #8B5D43",
"-. c #865D42",
";. c #916341",
":. c #827441",
">. c #BEBD1E",
",. c #8C833A",
"<. c #928A37",
"1. c #928739",
"2. c #9C9433",
"3. c #999533",
"4. c #AE932C",
"5. c #A59D2E",
"6. c #A99822",
"7. c #B1942C",
"8. c #B59D29",
"9. c #A68432",
"0. c #A98930",
"q. c #A49B30",
"w. c #A98A2F",
"e. c #A9A32B",
"r. c #ABA82A",
"t. c #BCA426",
"y. c #B5AA26",
"u. c #B6B324",
"i. c #BBBA22",
"p. c #B8B324",
"a. c #CF9D1E",
"s. c #D19F1F",
"d. c #E68D1E",
"f. c #E5931E",
"g. c #E59C1C",
"h. c #E9991C",
"j. c #D2A41D",
"k. c #D4AB1B",
"l. c #C3BE1E",
"z. c #CABD1C",
"x. c #D7B517",
"c. c #D8B617",
"v. c #DBBC16",
"b. c #D6B21A",
"n. c #D9B419",
"m. c #DABA18",
"M. c #D7BC17",
"N. c #E7A919",
"B. c #E9AD19",
"V. c #E8A61A",
"C. c #EBBC14",
"Z. c #EAB316",
"A. c #C58426",
"S. c #C68A25",
"D. c #C98D24",
"F. c #C48228",
"G. c #CA8027",
"H. c #CB9423",
"J. c #CD9A21",
"K. c #D19620",
"L. c #E68422",
"P. c #E38B22",
"I. c #E98921",
"U. c #C5A923",
"Y. c #D2A320",
"T. c #C3B420",
"R. c #C0BD20",
"E. c #DEDB0F",
"W. c #CFCD16",
"Q. c #C4C41D",
"!. c #CCC31A",
"~. c #C7CB1A",
"^. c #CACC19",
"/. c #DDC315",
"(. c #D5CD15",
"). c #DFC913",
"_. c #D2C519",
"`. c #D3C918",
"'. c #CED119",
"]. c #D3D416",
"[. c #D9D314",
"{. c #D6D915",
"}. c #DADA13",
"|. c #EECE0F",
" X c #E5D50E",
".X c #EDD40E",
"XX c #E6D90E",
"oX c #ECDB0C",
"OX c #F1DB0C",
"+X c #E0C714",
"@X c #EDC312",
"#X c #E1CC11",
"$X c #EDCA11",
"%X c #E4D211",
"&X c #E3DE10",
"*X c #EED111",
"=X c #F1D310",
"-X c #DCE010",
";X c #EBE30B",
":X c #E9E90B",
">X c #F1E10A",
",X c #F2F504",
/* pixels */
"G R r * X # 3 3 3 3 3 3 3 3 3 3 $ ; ; 3 3 3 3 3 3 3 3 3 3 3 3 3 3 $ : ; ; 3 3 ; 3 3 3 3 3 3 3 3 3 3 $ ; 3 3 ; 3 3 3 3 3 3 3 3 3 ",
"G R r * O + I U U I Y I I U I r 4 ` H I I I I I I I I I I I I I u 3 o.U I I I I I I I I I I I I I r 4 ' I I U I I I I I I I H I ",
"R y t t t r t t t s S.l t t r $.; I t t t t t t t t t t t t t t * $ J y t t t t t t t t t t t t r $.3 I t t t t t t t t t t t t ",
"! t t t t t t t t s J.S t t r * ; I t t t t t t t t t t t t t t * $ P t t t t t t t t t t t t t r * 3 I t t t t t t t t t t t t ",
"! t t t t t t t t p v.A.t t r * ; I t t t t t t t t t t t t t t * $ U t t t t t t t t t t t t t r * 4 U t t t t t t t t t t t t ",
"! y t t t t t t t k XXj.t t r * 3 I t t t t t t t t t t t t t t * $ U t t t t t t t t t t t t t r * 4 I t t t t t t t t t t t t ",
"! t t t t t t t t _ XX) t t r * ; I t t t t t t t t t t t t t t * $ U t t t t t t t t t t t t t r * ; I t t t t t t t t t t t t ",
"! t t t t t t t t J. Xk t t r * ; I r r t t t t t t t t t t t r & $ U t t t t t r t t t s p t t +.* ; U @.t t t t t t t t t t t ",
"O.* & & & & & & * z.(.%.c & & o 3 e * * * * & & * * & & * * * & o $ O.* & & & * * * c 4.z.`.t.= & o 3 u * * * * * * * * & * * * ",
"3 3 3 3 $ 3 $ $ 5 ~.Q.$ $ $ $ $ $ 3 $ 3 $ $ $ $ $ $ $ $ $ $ $ $ + $ ; 3 $ 3 3 3 $ 9 i.~.r.3.>.m $ $ $ 3 $ $ 9 $ $ 3 > 3.,.3 @ $ ",
"U U U U U U e 3 0 OXC.! U ! U U U U | I.! ! U U O.; ..{ ! U U U U W U ! U ! U U P Z y.C.E U H U T ! U U U { .X{ U E /.{.>Xh.H U ",
"t t t t t t * $ :..Xs.t t t t t t z #XXXk.y t t = <.C.%Xk.g t t ) n.g t t k t t t 0.q.V.g t t t t t t t t k #XF.t A.[.m o.G.g y ",
"t t t t t t * $ <..X_ t t t t t s m. Xj.%XV t p T.Q.C.s.#XZ t t _ ).d t _ +Xd t r F u.V.i t t t t t k z s t j.k.t Y.t.$ ! t t t ",
"t t t t t r & $ e.OXz t t t t t A.%Xn.f m.b.s V [.u.| g n.k.s t _ +Xd s n.).s t r %.u.|.p t t t s H./.%Xv.h k S.s s.w.$ U t t t ",
"t t t t t t & $ l.|.s t t t t p /./.Z t S.+Xf D.(.<.R t D.).d t V #Xk S ).j.t t r * y.OX_ t t t H. Xv.b.#XJ.s k.j.c.b $ U t t t ",
"t t t t t r & 7 {.N.t t t t t z #Xm.k t V #Xl b.!.m U t F.#Xh t S %Xz s.%XV t t r * e.>Xk.d t f k.#XB s F.j.s j.;X).=.$ U t t t ",
"r r r r r r & 2.{.` r r r r r V /.v.j r D %XV #Xl.0 P t S.).d r l  XS.m./.d r r r * 5.>X).k.k l b.b.s @.l a.d F.;X%X=.$ P t r r ",
"* * * $.* * % Q.'.j * * * * * N _.z.*.* b [.9.}.y.$ r $.t.z.%.* =.[.!.`.7.* * * * o e.XXt.t.*.7.z.T.*.* *.8.#.n [.z.  $ r $.* * ",
"4 4 ; ; 3 3 :.].u.: > : ; ; ; m ^.i.: ; m {.m ].1.3 3 8 i.u.> 3 9 ].^.^.1.> ; ; ; ; r.{.0 : 4 :.Q.>.7 ; < r.8 :.{.Q.0 3 ; ; 3 ; ",
"..U I I I U B.oXX.K ^ ^ ^ U I V '.@XH I X..X/ $Xg.U I X.$Xd.I I j ].=XoX.XZ.( I I I g.$XU U I K C.m.:.' K N.P.L Z.$X{ I I I I I ",
"R t t t t f #X%Xn.v.v.v.m.b.A.b ~.C.s h k.v.f k.v.l k b.m.l t @.c '.L._ v.XX/.B t t i H.s t t t S.z.<.I k k.j.l c. XS t t t t t ",
"T t t t t s k.%X#X)./././.#Xk.b R.oXn.v.).A.t ) v.j.k.+XA.t t t c ^.I.y s F. Xv.l t t ) c.) t t p z.~.X.H.b.a.s J.XXV t t t t t ",
"T t t t t t s f h s i s s k j * :.f.j.a.Z t t p a.#X+X) t t t s T.].f.y t t S j.S.t t k k.k.s t r n ~.$Xb.j.B t s H.l t t t t t ",
"T t t t t t t t t t t t t t r * ; I t t t t t t s l f t t t t t t.}.d.t t t t s s t t t s d t t r * < X.F.l t t t t t t t t t t ",
"T t t t t t t t t t t t t t r * ; I t t t t t t t t t t t t t t N {.o.t t t t t t t t t t t t t r * 3 I t t t t t t t t t t t t ",
"! t t t t t t t t t t t t t r * 3 I t t t t r t t t t t t t r r & m ! t t t t t t t t t t t t t @.* 3 I r t t t t t t t t t t t ",
"r * & & & & & & * & & & & & & . 3 u & & * & * * * * * * & * * & . $ e * & & * * & & * & * * & * & O $ &.& & & & * & & * & * & & ",
"3 3 $ $ $ $ $ $ $ 3 3 $ $ $ $ $ $ 3 $ $ $ $ m 9 $ $ ; $ $ $ $ $ $ $ ; 3 $ 3 3 $ $ $ $ $ $ 3 3 $ $ @ $ ; $ $ $ @ $ $ $ $ $ $ ; ; ",
"! U U U U U O.3 > o.H R U U U J U U U U U ! B.h.e 2 ..R U ! ~ U U U U U U U U U U r : o.U U ! U U U U U U U U U U U a ; ..R U ! ",
"t t t t t t * $ ; Y t t t t t y t t f z z [ %Xk.b m L.K.D._ D.g t t t t t t t t t $.; U y y y t t t t y t t t t t t * 3 R y t t ",
"t t t t t t & $ 3 U t t t t t t t s k. X X;X,X;X&X-XOX Xk.H./.s t t t t t t t t r = > I t t t t t t t t t t t t t t & 3 U t t t ",
"t t t t t t & $ ; I t t t t t t t t d S B H.;XH.N ,.| x s V  Xl t t t t t t t t d t.Q.Z.) t t t t t t t t t t t t t & $ U t t t ",
"t t t t t t & $ 3 I t t t t t t t t t t t _ ;X_ * $ ! t t z XXB t t t t t t t d M.(.r.C.#Xk t t t t t t t t t t t t & 3 U t t t ",
"t t t t t t & $ ; I t t t t t t t t t t t A.oXV * $ U t t k %XV t k Z V d t t H.).b ; P.#Xk t t t t t t t t t t t r & 3 U y t t ",
"r r r r r r * $ 3 I r r r r r r r r t r r S. Xl & $ P t r d #XA C /.#X#Xb.i j v.n.N 5.$Xj.r r r r @.r r r r @.r r r & $ P t r r ",
"* * * * * * o $ 3 a * * * * * * * * * * * 7.[.;.O @ r $.* %.!.t._.[.z.z.[.b 7.E.E.W.~.Y.#.* * * * * * * * * * * * * . $ r $.* * ",
": ; ; ; ; ; ; 3 3 ; ; ; ; ; 3 3 $ ; 3 3 3 5.].q 3 3 3 4 ; : Q.}.Q.3.0 M -X2.0 W.].M 0 : ; 4 ; 3 4 3 $ ; 3 3 ; 3 3 3 4 3 ; 4 3 3 ",
"o.U I I I I I I U I I I I I I r : ` H I I f..X} I I I I I I $XOXj 3 o./ oXV.U N..XP.I I I I I I I a ; ] I I U I I I I I I I I I ",
"! t t t t t t t t t t t t t t $.; I t t t A.%XS t t t t t t #X#X* @ U h #Xc.t S /.#Xl t d V t t r * ; I t t t t t t t t t t t t ",
"! t t t t t t t t t t t t t r * ; I t t t A.%XS t t t t t t %X+X* 3 U s v.).t t Z  X#Xc.#X%Xk t r * ; I t t t t t t t t t t t t ",
"Q t t t t t t t t t t t t t r * ; I t t r B  XV t t t t t t #X#X* $ U t k.).s t t B /.#Xm.) t t r * ; I t t t t t t t t t t t t ",
"! t t t t t t t t t t t t t t * ; I t t t f k.k t t t t t t k.n.* $ U t _ k.s t t t s s t t t t r * 4 U t t t t t t t t t t t t ",
"T t t t t t t t t t t t t t r * ; U t t s t s t t t d k l k s d * $ U t t h t t t t t t t t t t r * ; I t t t t t t t t t t t t ",
"! t t t t t t t t t t t r t r * ; I t t t t t t t r t t t t t @.* 3 U t t t t t t t t t t t t t r * ; I t t t t t t t t t t t t ",
"+.* & & & & & & & & & & & & & O 3 e 6 & & * & & * * * * * * * & . $ +.* * * * * * * & * * * * * & o 3 e & & & & & & & & & & & & ",
"; 3 $ $ $ $ $ $ $ @ 3 $ $ $ $ $ $ 3 $ > 3 $ $ $ $ $ 3 3 3 3 ; $ $ $ 2 3 $ $ $ $ 3 $ $ $ 3 $ 3 3 3 $ $ 3 3 $ $ 3 3 $ 3 $ $ @ 3 3 ",
"U P ! ! ! ! e 3 : o.J { ! U U U Q !  .@XL.! U U +.3 ..! U U U U U U U U U U ! J I r : o.J U J U P U J ! ! J U U U P e ; ..R U U ",
"t t t t t t * $ ; H _ %Xz t t t t t B /.j.s t @.- ; E z z f g g t t t t t t t y t $.3 U t t t t t t t t t t t t t t * $ R y t t ",
"t t t t t t & $ 3 U A. XB t t t t t t V s t t t & w $X%Xv.k.s t t t t t t t t t r * 3 U t S p s k t t t t t t t t t * $ P t t t ",
"t t t t t t & $ 3 I ) XXZ t t t t t V k.l t t t -.'.OX#XD.k t t t t t t t V f t r * 4 / i k./.x. Xa.H.D.A.k s t t t & $ U t t t ",
"t t t t t t * $ 3 I Z  XA.t t t t t _ /.j.s t t T.^.{ y t t t t t t t t s j.J.s t * q @Xk k H.v.:X X%X%X Xk.A.t t t * 3 U t t t ",
"t t t t t t * $ 3 I ) %XH.t t t t t _ #Xa.t t V [.m ! t k _ Z k t t t t s k.k.s t * ,.oXV t t B XXD.p f f p s t t r & 3 U t t t ",
"r r r r r r & $ 3 I F.#XH.r r r r r A XXS.r r J.z., P k ).oX&X%XY.a r r s j.k.s r * ,.oXZ r @.Z %XJ.r r r r r r r r & @ P t r r ",
"* * * * * * O $ 3 a 7._.4.* * * * * 9.}.9.* *.z.6.$ @.$.9.}.U.8.[.=.* * = T.!.b b v 2.;Xw.* * 4.!.U.* * * * * * * * O $ r $.* * ",
": 4 3 3 3 ; ; 3 ; 4 q.~.2.; 3 3 $ ; 2.{.m 3 0 Q.q.3 4 3 : y.W.1.].9 : ; < }.:X}.{.].}.:X>.; : 5.l.i.$ ; 4 3 3 3 3 4 3 4 ; 3 3 ; ",
"..U I I U I I I I Y g.C.f.I I r 4 ' g.*X/ U } C.g.I I I I | .Xf.[.8 ..U U B.@X( / / P..X' I Y g.C.b.8 ` I I I I I I I I I I I I ",
"R y t t t t t t t s j.m.A.t t $.0 K H.#Xz t C j.k.p t t t V +XH.].8 U t t H.v.s t t _ #Xk t t A.n.z.0 P t t t t t t t t t t t t ",
"! t t t t t t t t s j.).k.Z S.z.].B.a.#Xz t l k.k.z t s l H.n.D.[.8 ! t t A.#Xp t t _ #Xk t t S x._.:.I t t t t t t t t t t t t ",
"! t t t t t t t t t _ %XoXoXXX[.p.K H.%Xz t t D./.c.H.j.k.H.j._ [.9 U t t a.XXk t t _ #Xk t t t H.`.Q. .s t t t t t t t t t t t ",
"Q t t t t t t t t t t k J.H.A =.: I A.XXS t t s A.).).b.j.j.D.l T.> U t t z j.s t t l v.l t t t i t.].=Xk.s t t t t t t t t t t ",
"R t t t t t t t t t t t t t r * ; I f m.l t t t t s k l l l s k 8., U t t t s t t t t A.S t t t r ;.u.C.k.d t t t t t t t t t t ",
"! t t t t t t t r t t t t t r * ; I t i t t t t t t t t r r t @.-.3 U t t t t t t t t a t t t t r * < ^ f t t t t t t t r r t t ",
"e * & & * & & * & * * * * & & O $ u * * * * * * * * * * & & * & O $ e * & * & & & & & & & & & & & O 3 u * & * * * * * * * * * * ",
"3 $ $ $ $ $ $ $ $ $ $ $ $ $ $ $ $ 3 $ $ $ $ $ $ $ $ $ $ $ $ $ $ $ $ 3 $ $ $ $ $ $ $ $ $ $ $ $ $ $ $ $ 3 $ $ $ $ $ $ $ $ $ $ $ $ "
};
