/* XPM */
static char *xpm_[] = {
/* columns rows colors chars-per-pixel */
"64 64 123 2 ",
"   c #5D3744",
".  c #5F3B43",
"X  c #613744",
"o  c #623A44",
"O  c #5D4F4F",
"+  c #5E514E",
"@  c #5D4F52",
"#  c #5D5251",
"$  c #624F4E",
"%  c #794746",
"&  c #77454B",
"*  c #7B454B",
"=  c #79484B",
"-  c #66534F",
";  c #69554E",
":  c #66584D",
">  c #645251",
",  c #695450",
"<  c #695850",
"1  c #9D3E3F",
"2  c #AE3D37",
"3  c #A53D3E",
"4  c #A93B3C",
"5  c #B23D3B",
"6  c #9D403E",
"7  c #A5413D",
"8  c #F47A1D",
"9  c #DE472F",
"0  c #D74A2F",
"q  c #DD4A2F",
"w  c #DA4733",
"e  c #DE4732",
"r  c #DD4732",
"t  c #D54930",
"y  c #D44A30",
"u  c #D54932",
"i  c #D64832",
"p  c #D54A33",
"a  c #D74B32",
"s  c #D64933",
"d  c #D94931",
"f  c #DB4930",
"g  c #DA4831",
"h  c #D84B30",
"j  c #DA4A30",
"k  c #DB4B31",
"l  c #D94833",
"z  c #DB4932",
"x  c #D84A32",
"c  c #D94B33",
"v  c #DA4A32",
"b  c #DB4B33",
"n  c #DE4830",
"m  c #DF4930",
"M  c #DE4931",
"N  c #DF4931",
"B  c #DC4A31",
"V  c #DD4832",
"C  c #DF4833",
"Z  c #DE4933",
"A  c #D94C31",
"S  c #DA4D31",
"D  c #DB4E30",
"F  c #DB4E32",
"G  c #DA4F32",
"H  c #DA4934",
"J  c #D84A34",
"K  c #DB4A35",
"L  c #DF4A34",
"P  c #D84C35",
"I  c #DC4C34",
"U  c #DB4A32",
"Y  c #E1472F",
"T  c #E2482E",
"R  c #E3492F",
"E  c #E14D2F",
"W  c #E24D2F",
"Q  c #E64D2E",
"!  c #E14B2E",
"~  c #E24631",
"^  c #E04830",
"/  c #E04831",
"(  c #E14931",
")  c #E34931",
"_  c #E04A31",
"`  c #E04833",
"'  c #E04C30",
"]  c #E04934",
"[  c #E14931",
"{  c #DA7726",
"}  c #DD7627",
"|  c #DB7727",
" . c #DD7826",
".. c #DD7629",
"X. c #DE7728",
"o. c #DD7629",
"O. c #E57624",
"+. c #E47724",
"@. c #E77626",
"#. c #E67625",
"$. c #ED7720",
"%. c #ED7622",
"&. c #E97424",
"*. c #ED7624",
"=. c #E67825",
"-. c #9F3F40",
";. c #9D3F40",
":. c #A43B40",
">. c #A13F40",
",. c #A53C40",
"<. c #A63C40",
"1. c #A53D40",
"2. c #A93A40",
"3. c #A83D40",
"4. c #80434B",
"5. c #814449",
"6. c #81444B",
"7. c #80444C",
"8. c #83444C",
"9. c #81444A",
"0. c #9B4141",
"q. c #A74041",
"w. c #A54141",
/* pixels */
"8 Q 3 *   @ > > > > > > > > > > # - - > > > > > > > > > > > > > > # ; - - > > - > > > > > > > > > > # - > > - > > > > > > > > > ",
"8 Q 3 * X @ P b b H b b b b y 3 < { 0 b b b b b b b b b b b b b 6 > +.F b b b b b b b b b b b b y 3 < } b b V b b b b b b b 0 0 ",
"R 5 4 4 4 3 4 4 4 4 4 4 4 4 3 * - b 4 4 4 4 4 4 4 4 4 4 4 4 4 4 = # 9 5 4 4 4 4 4 4 4 4 4 4 4 4 3 * > b 4 4 4 4 4 4 4 4 4 4 4 4 ",
"( 2 4 4 4 4 4 4 4 4 4 4 4 4 3 * - b 4 4 4 4 4 4 4 4 4 4 4 4 4 4 = # e 4 4 4 4 4 4 4 4 4 4 4 4 4 3 * > b 4 4 4 4 4 4 4 4 4 4 4 4 ",
"( 2 4 4 4 4 4 4 4 4 4 4 4 4 3 * - b 4 4 4 4 4 4 4 4 4 4 4 4 4 4 = # V 4 4 4 4 4 4 4 4 4 4 4 4 4 3 * , H 4 4 4 4 4 4 4 4 4 4 4 4 ",
"( 5 4 4 4 4 4 4 4 4 4 4 4 4 3 * > b 4 4 4 4 4 4 4 4 4 4 4 4 4 4 = # V 4 4 4 4 4 4 4 4 4 4 4 4 4 3 * , b 4 4 4 4 4 4 4 4 4 4 4 4 ",
"( 2 4 4 4 4 4 4 4 4 4 4 4 4 3 * - y 4 4 4 2 4 4 4 4 4 4 4 4 4 4 = # V 4 4 4 4 4 4 4 4 4 4 4 4 4 3 * - b 4 4 4 4 4 4 4 4 4 4 4 4 ",
"( 2 4 4 4 4 4 4 4 4 3 4 4 4 3 * - b 3 3 4 4 4 4 4 4 4 4 4 4 4 3 & # V 2 4 4 4 4 4 4 4 4 4 4 4 4 :.= - H 2.4 4 4 4 4 4 4 4 4 4 4 ",
">.* & & & & & & & & & & & & & o > 6 = * = = & = = & = = = = & & o # 1 * & & & = = = = & = = & = & o > 1 = = * = & = = = = = * = ",
"> > > > # > # # # - > # > # # # # > # > # # # # # # + # # # # # O # > > > > > > # # # # > # # # # # # - # # > # # > # # # # # # ",
"e V L L V V 1 > < +.( V V V V 9 ( ( V ( V V V V -.- $.W V ` V V V V V V ( V V V w 3 ; +.( ( V V 9 V V V V V V V e V 1 $ $.9 V V ",
"2 2 2 2 4 4 * # > F 2 2 4 4 2 4 5 4 4 4 4 2 4 2 * # W 5 2 4 4 4 4 4 4 4 4 4 4 4 4 6.- F 5 4 4 4 4 4 4 4 2 2 4 4 2 4 * # ' 5 2 5 ",
"4 4 4 4 4 4 = # > b 4 4 4 4 4 4 4 4 4 4 4 4 4 4 = # V 4 4 4 4 4 4 4 4 4 4 4 4 4 3 = - b 4 4 4 4 4 4 4 4 4 4 4 4 4 4 & # V 4 4 4 ",
"4 4 4 4 4 4 & # > b 4 4 4 4 4 4 4 4 4 4 4 4 4 4 = # V 4 4 4 4 4 4 4 4 4 4 4 4 4 3 * - b 4 4 4 4 4 4 4 4 4 4 4 4 4 4 & # V 2 4 4 ",
"4 4 4 4 4 4 & # > b 4 4 4 4 4 4 4 4 4 4 4 4 4 4 & # 9 2 4 4 4 4 4 4 4 4 4 4 4 4 3 * - b 4 4 4 4 4 2 4 4 4 4 4 4 4 4 & # ] 4 4 4 ",
"4 4 4 4 4 4 & # > F 4 4 4 4 4 4 4 4 4 4 4 4 4 4 = > V 4 4 4 4 4 4 4 4 4 4 4 4 4 3 & - b 4 4 4 4 4 4 4 4 4 4 4 4 4 4 & # V 4 4 4 ",
"3 3 3 3 3 3 & # > y 3 3 <.3 3 3 3 3 3 3 3 3 3 :.& @ w 4 3 3 3 3 3 3 3 3 3 3 3 3 3 = > y 3 3 3 3 3 3 3 3 3 3 3 3 3 3 & # b 4 3 3 ",
"* * * * * * o # > 7 * * * * * * * * = * * * * * o # 3 4.* * * * * * * * * * * * = o > w.* * * * * * * * * * * * * * o # 3 7.* * ",
"< > - - > > - - - - > > - - - > # - - - - > - - > > > - - > > > > # - - - - - - - - - , > - - > - - # - - , > > > - > > - - - - ",
"&.F b b b b b H H 0 H b b b y 3 < X.0 H b b b b b I b b b b y b 1 - +.q b b b b b b b b b b b b y 3 ; X.b b b b b b b b b b b y ",
"R 4 4 4 4 4 4 4 4 4 4 4 4 4 3 7.- b 4 4 4 4 4 4 4 4 4 4 4 4 4 <.= # 9 4 4 4 4 4 4 4 4 4 4 4 4 4 3 6., b 4 4 4 4 4 4 4 4 4 4 4 4 ",
"Y 4 4 4 4 4 4 4 4 4 4 4 4 4 3 * - H 4 4 4 4 4 4 4 4 4 4 4 4 4 4 = # V 2 4 4 4 4 4 4 4 4 4 4 4 4 3 * - b 4 4 4 4 4 4 4 4 4 4 4 4 ",
"9 4 4 4 4 4 4 4 4 4 4 4 4 4 3 * - b 4 4 4 4 4 4 4 4 4 4 4 4 4 4 & # V 2 4 4 4 4 4 4 4 4 4 4 4 4 3 * - b 4 4 4 4 4 4 4 4 4 4 4 4 ",
"Y 4 4 4 4 4 4 4 4 4 4 4 4 4 3 * - b 4 4 4 4 4 4 4 4 4 4 4 4 4 4 = # V 2 4 4 4 4 4 4 4 4 4 4 4 4 3 * - b 4 4 4 4 4 4 4 4 4 4 4 4 ",
"Y 4 4 4 4 4 4 4 4 4 4 4 4 4 3 * - b 4 4 4 4 4 4 4 4 4 4 4 4 4 4 = # ( 2 4 4 4 4 4 4 4 4 4 4 4 4 3 * - b 4 4 4 4 4 4 4 4 4 4 4 4 ",
"( 4 4 4 4 4 4 4 4 4 4 4 4 4 3 * > b 4 4 4 4 3 4 4 4 4 4 4 4 4 4 & # e 2 4 4 4 4 4 4 4 4 4 4 4 4 3 * - b 3 4 4 4 4 4 4 4 4 4 4 4 ",
"3 * & = & & & & & & & & & & & o > 6 & & & & = = & = = = = & & & o # 1 * & & = = & = = & = = & = & o # 0.& & & & = & & = & & & & ",
"> > # # # # # # # # # # # # # @ # > # # # # # # # # > # # # > > # # - # # # > # @ # # # # > > # # # # - # # > # # # # # # # - - ",
"( V V V V V 1 > - +.V 9 V V e 9 V e V V V V V ( -.$ $.' V V V V V V V ( V V V V w <.; =.V ( ( V V V V V V 9 V V V V 6 - *.q V ( ",
"4 4 2 4 4 4 * # - F 2 2 2 2 2 2 2 2 2 2 5 2 2 2 * > ' 5 2 4 4 4 4 4 4 4 4 4 2 2 4 6.- F 5 2 2 4 2 2 4 2 5 4 4 2 2 4 * # W 5 4 4 ",
"4 4 4 4 4 4 & # > H 4 4 4 4 4 4 4 4 4 4 4 4 4 3 = - V 2 4 3 4 4 4 4 4 4 4 4 4 4 3 * > b 4 4 4 4 4 4 4 4 4 4 4 4 4 4 & > V 2 4 4 ",
"4 4 4 4 4 4 & # > H 4 4 4 4 4 4 4 4 4 4 4 4 4 3 = > ( 4 4 4 4 4 4 4 4 4 4 4 4 4 3 * - b 4 4 4 4 4 4 4 4 4 4 4 4 4 4 & # V 2 4 4 ",
"4 4 4 4 4 4 & # > b 4 4 4 4 4 4 4 4 4 4 4 4 4 4 = # ( 4 4 4 4 4 4 4 4 4 4 4 4 4 3 6.- b 4 4 4 4 4 4 4 4 4 4 4 4 4 4 & > V 4 4 4 ",
"4 4 4 4 4 4 & # - b 4 4 4 4 4 4 4 4 4 4 4 4 4 4 = # V 2 4 4 4 4 4 4 4 4 4 4 4 4 3 * - b 4 4 4 4 4 4 4 4 4 4 4 4 4 3 & > V 4 4 4 ",
"3 3 3 3 3 3 * # > p 3 3 3 3 3 3 4 3 3 3 3 3 <.3 & # e 4 4 3 3 3 3 3 3 3 3 3 3 3 3 = > y 3 3 3 3 3 <.3 3 3 3 <.3 3 3 & # w 4 3 3 ",
"* * * * * * o # > 7 * * * * * * * * * * * * * * o O 3 4.* * * * * * * * * * * * * X - w.* * * * * * * * * * * * * * . # 3 6.* * ",
"; - - - - - - > > - - - - - > > # - > > > > > > > > > > > > > > > # - - - - - - - - > - - - - - , > # - > > - > > > , > - > > > ",
"+.F b b b b y y H b b b b b y 3 ; { 0 b b y b b b b b b H H b H 1 > +.F b b F b b b H b b b F b y 7 -  .b b V b b b b b b b b b ",
"( 4 4 4 4 4 4 4 4 4 4 2 4 4 4 * > b 4 4 4 4 4 4 4 4 4 4 4 4 4 4 = + V 2 4 4 4 4 4 4 4 4 4 4 4 4 3 * - b 4 4 4 4 4 4 4 4 4 4 4 4 ",
"( 2 4 4 4 4 4 4 4 4 4 4 4 4 3 * - F 4 4 4 4 4 4 4 4 4 4 4 4 4 4 = > V 4 4 4 4 4 4 4 4 4 4 4 4 4 3 * - b 4 4 4 4 4 4 4 4 4 4 4 4 ",
"` 2 4 4 4 4 4 4 4 4 4 4 4 4 3 * - b 4 4 4 4 4 4 4 4 4 4 4 4 4 4 = # V 2 4 4 4 4 4 4 4 4 4 4 4 4 3 * - b 4 4 4 4 4 4 4 4 4 4 4 4 ",
"( 2 4 4 4 4 4 4 4 4 4 4 4 4 3 * - b 4 4 4 4 4 4 4 4 4 4 4 4 4 4 = # e 4 4 4 4 4 4 4 4 4 4 4 4 4 3 * , H 4 4 4 4 4 4 4 4 4 4 4 4 ",
"Y 2 4 4 4 4 4 4 4 4 4 4 4 4 3 * - H 4 4 4 4 4 4 4 4 4 4 4 4 4 4 = # V 2 4 4 4 4 4 4 4 4 4 4 4 4 3 * - b 4 4 4 4 4 4 4 4 4 4 4 4 ",
"( 2 4 4 4 4 4 4 4 4 4 4 4 4 3 * > H 4 4 4 4 3 4 4 4 3 4 4 4 4 2.= > V 4 4 4 4 4 4 4 4 4 4 4 4 4 3 * - b 4 4 4 4 4 4 4 4 4 4 4 4 ",
">.= & & & & & & = & & & & & & X > 1 & & & = & & = & = = = = & & o # 1 * = = = = = = = & = & = = & o > 1 & & & & & & & & & & & & ",
"- > # # # # # # # + > # > # # # # > > > # # # # # # > > > > > > # # $ + > # > - # # # > > > > > # # # > > # # > > # > # # + > # ",
"V e L ( ( ( 1 > - =.V V ( V V V e ( V ( ( ( V V >.> *.W 9 V V V V V V V V V V V b 3 ; =.9 V V e e V 9 V ( 9 V V V e 1 - $.W V V ",
"4 2 2 4 4 2 * # - q 4 4 2 4 4 2 2 4 2 4 4 4 4 2 * - ' 5 4 4 4 4 4 4 2 4 4 4 4 2 4 4.- F 2 4 4 4 4 2 2 4 4 4 4 4 4 4 = # W 5 4 4 ",
"4 4 4 4 4 4 & # > I 4 4 4 4 4 4 4 4 4 4 4 4 4 4 & # V 4 4 4 4 4 4 4 4 4 4 4 4 4 <.* > b 4 4 4 4 4 4 4 4 4 4 4 4 4 4 = # e 2 4 4 ",
"4 4 2 4 4 4 & # > b 4 4 4 4 4 4 4 4 4 4 4 4 4 4 = # ( 5 4 4 4 4 4 4 4 4 4 4 4 4 3 * - b 4 4 4 4 4 4 4 4 4 4 4 4 4 4 & # V 4 4 4 ",
"4 4 4 4 4 4 = # > I 4 4 4 4 4 4 4 4 4 4 4 4 4 4 & # V 4 4 4 4 4 4 4 4 4 4 4 4 4 3 * > 0 2 4 4 4 4 4 4 4 4 4 4 4 4 4 & # V 4 4 4 ",
"4 4 4 4 4 4 = # > b 4 4 4 4 4 4 4 4 4 4 4 4 4 4 & # V 2 4 4 4 4 4 4 4 4 4 4 4 4 3 * > b 4 4 4 4 4 4 4 4 4 4 4 4 4 3 & # V 4 4 4 ",
"3 3 3 3 3 3 & # > p 3 3 3 3 3 3 3 3 3 3 3 3 3 3 & # b 4 3 3 3 3 3 3 3 3 3 3 3 3 3 = > p 3 3 3 3 3 3 3 3 3 3 3 3 3 3 & + w 4 3 3 ",
"* * * * * * o # > 3 6.* * * * * * * * * * * * = o # 3.6.* = * * * * * * * * * * * X > 3 * * * * * * * * * * * * * * o # 3 6.* * ",
"; , > > > - - > - > , , - - > > # - > > - > > > > > > > > > > > > # ; - - - - - - - > - - - - - - > # - - > > > > > > > - > > - ",
"&.F b b H b b b b b b b y b y 3 < X.b b H b b b H b b b b b b b 1 - &.F b b b b b b b b b b 0 b p <.: } b b b b b b b b b b b b ",
"R 2 4 4 4 4 4 4 4 4 4 4 4 4 4 * - 0 4 4 4 4 4 4 4 4 4 4 4 4 4 4 % > F 2 4 4 4 4 4 4 4 4 4 4 4 4 3 * - y 4 4 4 4 4 4 4 4 4 4 4 4 ",
"( 2 4 4 4 4 4 4 4 4 4 4 4 4 <.* > b 4 4 4 4 4 4 4 4 4 4 4 4 4 4 = > ( 4 4 4 4 4 4 4 4 4 4 4 4 4 3 * - b 4 4 4 4 4 4 4 4 4 4 4 4 ",
"( 2 4 4 4 4 4 4 4 4 4 4 4 4 3 * - b 4 4 4 4 4 4 4 4 4 4 4 4 4 4 = # V 2 4 4 4 4 4 4 4 4 4 4 4 4 3 * > b 4 4 4 4 4 4 4 4 4 4 4 4 ",
"` 2 4 4 4 4 4 4 4 4 4 4 4 4 3 * > b 4 4 4 4 4 4 4 4 4 4 4 4 4 4 = # V 4 4 4 4 4 4 4 4 4 4 4 4 4 3 * - b 4 4 4 4 4 4 4 4 4 4 4 4 ",
"R 2 4 4 4 4 4 4 4 4 4 4 4 4 3 * - b 4 4 4 4 4 4 4 4 4 4 4 4 4 4 = # V 2 4 4 4 4 4 4 4 4 4 4 4 4 3 * > H 4 4 4 4 4 4 4 4 4 4 4 4 ",
"( 4 4 4 4 4 4 4 4 4 4 4 4 4 3 * - H 4 3 4 4 4 4 4 4 4 4 4 3 4 <.= # V 2 4 4 4 4 4 4 4 4 4 4 4 4 3 * - H 4 4 4 4 4 4 4 4 4 4 4 4 ",
"1 * & & = & & = & = = & = & * o # 6 = & = & = = = = = = = = = & . # 1 * & & & & & & & & & & & & & o # -.= = = = = = = = = = = = ",
"> # # # # # # # # # # # # # # # # # # # # # # # # # # # # # # # # # > # # # # # # # # # # # # # # # # > # # # # # # # # # # # # "
};
