/* XPM */
static char *xpm_[] = {
/* columns rows colors chars-per-pixel */
"64 64 186 2 ",
"   c #5A3C3E",
".  c #255E0E",
"X  c #295E0E",
"o  c #3E5F0E",
"O  c #225F14",
"+  c #2B5D10",
"@  c #2A5D1A",
"#  c #27571C",
"$  c #325B13",
"%  c #3B5A15",
"&  c #3E5718",
"*  c #325A1E",
"=  c #3E5819",
"-  c #3D5716",
";  c #046703",
":  c #0B6606",
">  c #026802",
",  c #086807",
"<  c #0D660A",
"1  c #116407",
"2  c #13640B",
"3  c #1C620A",
"4  c #1A6705",
"5  c #1C6114",
"6  c #186314",
"7  c #22620B",
"8  c #2B620B",
"9  c #34610D",
"0  c #3C610D",
"q  c #21621A",
"w  c #28601F",
"e  c #2D5E25",
"r  c #275F22",
"t  c #3B5726",
"y  c #355C25",
"u  c #345D2B",
"i  c #3A5B2E",
"p  c #3A5826",
"a  c #375B31",
"s  c #3C5A33",
"d  c #286023",
"f  c #425F0F",
"g  c #425717",
"h  c #475F10",
"j  c #455619",
"k  c #4B551C",
"l  c #4F5D12",
"z  c #535D14",
"x  c #53521E",
"c  c #5A511F",
"v  c #5B5B15",
"b  c #625A16",
"n  c #6A5918",
"m  c #7B561C",
"M  c #72591C",
"N  c #7C581A",
"B  c #496C0E",
"V  c #506D10",
"C  c #5D4F20",
"Z  c #44552B",
"A  c #4A532E",
"S  c #5B5120",
"D  c #545221",
"F  c #5C4E36",
"G  c #5D4E3B",
"H  c #4D5231",
"J  c #425A34",
"K  c #45573B",
"L  c #4B573B",
"P  c #42583A",
"I  c #4B583B",
"U  c #555034",
"Y  c #50553F",
"T  c #634E24",
"R  c #6C4C26",
"E  c #654F28",
"W  c #6D4B29",
"Q  c #714B27",
"!  c #7E462D",
"~  c #74492A",
"^  c #7B482C",
"/  c #605221",
"(  c #624D3C",
")  c #684A3F",
"_  c #794932",
"`  c #5F3B44",
"'  c #5D3744",
"]  c #623A44",
"[  c #603745",
"{  c #5E4E4E",
"}  c #4C5642",
"|  c #465840",
" . c #535544",
".. c #5A5546",
"X. c #535942",
"o. c #57534B",
"O. c #5C534C",
"+. c #5C4F52",
"@. c #5D5251",
"#. c #6D4744",
"$. c #674B41",
"%. c #6C4942",
"&. c #634F4E",
"*. c #754646",
"=. c #794646",
"-. c #714944",
";. c #76464A",
":. c #7A454B",
">. c #74484A",
",. c #65534E",
"<. c #69564F",
"1. c #7B4650",
"2. c #645251",
"3. c #695550",
"4. c #943F35",
"5. c #9B3F37",
"6. c #973E38",
"7. c #9D3E3A",
"8. c #A33D37",
"9. c #A43D3C",
"0. c #A93B3C",
"q. c #B23D3B",
"w. c #83561E",
"e. c #92551E",
"r. c #B6731C",
"t. c #82462E",
"y. c #8A452F",
"u. c #8A5521",
"i. c #935421",
"p. c #9F5226",
"a. c #834531",
"s. c #8C4333",
"d. c #8D443B",
"f. c #944135",
"g. c #9A4136",
"h. c #93413B",
"j. c #9B403B",
"k. c #AF4F26",
"l. c #AE4F29",
"z. c #B84E27",
"x. c #B64E2A",
"c. c #BC4D2A",
"v. c #B04F25",
"b. c #A45226",
"n. c #AB5025",
"m. c #AD5129",
"M. c #B2502A",
"N. c #B85227",
"B. c #A24036",
"V. c #A84037",
"C. c #A3413C",
"Z. c #F47A1D",
"A. c #C54C2C",
"S. c #CC4C2D",
"D. c #DE472F",
"F. c #D54A2E",
"G. c #DC4A2F",
"H. c #CC502D",
"J. c #CD4C31",
"K. c #C64D30",
"L. c #DC4732",
"P. c #D54A32",
"I. c #DF4931",
"U. c #DB4E31",
"Y. c #DB4A32",
"T. c #DB5033",
"R. c #E1472E",
"E. c #E24B2E",
"W. c #E14931",
"Q. c #E04931",
"!. c #E14630",
"~. c #C67523",
"^. c #DD7626",
"/. c #DC7628",
"(. c #E67625",
"). c #EB7623",
"_. c #E57825",
"`. c #9D3F40",
"'. c #A33D40",
"]. c #A83B40",
"[. c #81444B",
"{. c #A44040",
"}. c #939100",
"|. c #929200",
" X c #939100",
".X c #AA62AB",
/* pixels */
"Z.E.9.:.' +.2.2.2.> 2.2.2.2.2.2.@.<.3.2.2.2.2.2.2.2.2.2.2.2.2.2.2.@.<.,.,.2.o...< 2.2.2.2.2.2.2.2.2.@.<.2.2.,.2.2.2.2.2.2.2.2.2.",
"Z.E.9.:.[ +.Y.Y.Y.Y.> > > Y.P.9.3./.F.Y.Y.Y.Y.Y.Y.Y.Y.Y.Y.Y.Y.Y.j.2._.U.Y.z M.J.M > > Y.Y.Y.U.Y.P.9.3.^.Y.Y.Y.Y.Y.Y.Y.Y.Y.Y.Y.Y.",
"E.q.0.0.0.9.0.0.0.0.0.0.0.> 9.[.,.S.0.9.0.0.0.0.0.0.0.0.0.0.0.0.:.@.D.0.3 f.s.8.! > > 0.0.0.0.0.9.:.2.Y.0.0.0.0.0.0.0.0.0.0.0.0.",
"W.0.0.0.0.0.0.0.0.0.0.0.0.0.> > > Y.0.0.0.0.0.0.0.0.0.0.0.0.0.0.|.|.Y.0.C 9.8.8.x ; > > > > > 0.9.:.2.Y.0.0.0.0.0.0.0.0.0.0.0.0.",
"W.0.0.0.0.0.0.0.0.0.0.0.0.0.h.( > > 0.9.0.0.0.0.0.0.0.0.0.0.0.0.:.|.> : f.0.5.^ > > > 0.0.0.0.0.9.:.3.Y.0.0.0.0.0.0.0.0.0.0.0.0.",
"W.q.0.0.0.0.0.0.0.0.0.0.0.0.k : > > 8.0.0.9.0.0.0.> 0.0.0.0.0.0.:.@.Y.> 9.0.R 5.f.% > 0.0.0.> 0.9.:.3.Y.0.0.0.0.0.0.0.0.0.0.0.0.",
"W.0.0.0.0.0.0.0.0.> 0.0.0.0.7.* > > f.8.9.0.9.> > 0.0.0.0.0.0.0.:.@.Y.> 0.7.t.7.$ > > > > > 0.0.9.:.,.Y.0.0.0.0.0.0.0.0.0.0.0.0.",
"W.0.0.0.0.0.0.0.0.0.> 0.0.0.9.#.< > > 7.f.> > 8.0.0.0.9.0.0.0.0.;.@.> x 0.7.a.f.: > 0.0.0.0.0.0.'.:.,.Y.].0.0.0.0.0.0.0.0.0.0.0.",
"'.:.:.:.:.:.:.:.:.:.:.> :.:.> >  .1 ; > > > ;.*.:.:.:.:.:.:.;.:.] @.> 5 :.;.) %.: :.:.:.:.:.:.:.;.] 2.j.:.:.:.:.:.:.:.:.:.:.:.:.",
"2.2.2.2.@.2.@.@.@.2.2.> 2.> @.@.> > ; 2  .> @.O.> @.@.|.|.2.@.@.{ @.> , 2.O. .o.; @.O.@.2.@.@.@.@.@.@.2.@.@.@.@.@.2.@.@.@.@.@.@.",
"L.Y.I.Y.Y.Y.7.2.<._.Y.Y.> D.Y.Y.Y.; b > m G.Y.> _ ,.).W.|.> W.Y.Q.: 8 3 Y.Y.c.x.> 9.3._.W.Y.Y.D.R.Y.Y.Y.Y.Y.Y.W.Y.Y.7.&.).D.Y.Y.",
"0.0.0.0.0.0.:.@.,.U.0.0.0.0.0.0.> 0.s.> 2 g.0.> -.@.E.q.> 0.> > 0.S 8.~ 0.0.g.f.0.[.,.U.q.0.0.0.0.0.0.0.0.0.0.0.0.0.:.@.W.q.0.q.",
"0.0.0.0.0.0.:.@.2.P.0.0.0.0.0.0.> > R > > g > 0.:.@.Y.0.0.0.0.0.> > > s.8.9.5.s.9.:.,.Y.0.0.0.0.0.0.0.0.0.0.0.0.0.0.:.@.Y.0.0.0.",
"0.0.0.0.0.0.:.@.2.Y.0.0.> 0.> > > 0.t.: > > > 9.;.@.L.0.0.0.0.0.^ 8.8.5.8.5.5.a.9.:.,.Y.0.0.0.0.0.0.0.0.0.0.0.0.0.0.:.@.Y.0.0.0.",
"0.0.0.0.0.0.:.@.2.Y.0.0.0.> 0.0.> ! 8.x > > j 8.:.@.W.> 0.0.0.0.0.8.9.8.7.T 5.^ 9.:.,.> 0.0.0.0.0.0.0.0.0.0.0.0.0.0.:.@.Q.0.0.0.",
"0.0.0.0.0.0.:.@.2.Y.0.0.0.0.0.0.> + 5.s.1 > : k :.2.Y.0.> > 0.0.0.9.^ 7.t.S 8.T 9.> > Y.0.0.0.0. X X0.0.0.0.0.0.0.0.:.@.Y.0.0.0.",
"9.9.9.9.9.9.;.@.2.P.9.9..X|.9.9.> ; Q 7.^ - + : U @.L.0.9.9.> > 9.T 1 f.a.W 7.& > :.2.P.'.9.9.> |..X9.9.9.9.9.9.9.9.;.@.Y.0.9.9.",
":.:.:.:.:.:.` @.2.C.:.:.|.|.> > :.> 2 ( *.*.*.F # @.9.[.:.:.:.:.> ; ; %.%.( -.2 > ] 2.C.:.:.:.> |.:.:.:.:.:.:.:.:.:.[ @.9.[.:.:.",
"<.2.,.,.2.2.2.,.,.,.2.2.,.,.,.2.@.<.q 2 e J X.,.u X.,.,.,.2.2.2.6 > ; .. . . .; ,.,.,.3.,.2.> > ,.2.> <.,.2.2.2.2.,.,.3.,.,.,.,.",
").G.Y.Y.Y.Y.Y.Y.Y.G.Y.Y.Y.Y.P.9.3.^.F.u.; > 8 A.x.h m Y.Y.Y.Y.Y.> > V H.x.S.b.> Y.Y.Y.Y.Y.> Y.Y.L.> <./.Y.Y.Y.Y.Y.Y.Y.Y.Y.Y.Y.Y.",
"E.q.0.0.0.0.0.0.0.0.0.0.0.0.9.[.,.Y.0.8.Q s.R ~ 8.x > $ 0.0.0.! ( | A.0.5.5.- 0.0.0.0.0.> 0.0.> > [.3.Y.0.> 0.0.0.0.0.0.0.0.0.0.",
"R.0.0.0.0.0.0.0.0.0.0.0.0.0.9.:.,.Y.0.0.0.0.s.+ g.f.3 T 0.0.f.7.%. .S.0.7.T 0.> > 0.0.> 0.0.0.> 9.:.,.Y.> 0.0.0.0.0.0.0.> 0.0.0.",
"R.0.0.0.0.0.0.0.0.9.0.0.0.0.9.:.,.Y.0.0.8.4.t.S W 8.T + 9.9.9.a.; ; n.8.k ; > 0.0.0.> 0.0.0.0.> 6.F < > > > 0.0.0.0.0.> 0.0.0.0.",
"R.0.0.0.0.0.0..X|.0.0.0.0.0.9.:.,.Y.0.0.0.7.7.8.4.8.s.> 7.0.9.R > > k.g.1 > 0.0.0.0.> 0.0.; R > f.=.J ; > > 0.0.0.0.> 0.0.0.0.0.",
"R.0.0.0.0.0.0.|.|.0.0.0.0.0.9.:.,.Y.0.0.0.k $ T 5.9.Q > 5.0..X|.> > k.g.1 > > 0.0.0.> 0.+ ! 9.7.~ *.,.M.T > 3 0.0.0.> 0.0.0.0.0.",
"W.0.0.0.0.0.0.0.0.> > > ; 0.9.[.2.Y.0.t.; > ; ^ a.k 2 2 7.9.|.|.> > l.g.1 > > 0.0.0.% a.8.0.0.8.7.*.,.P.9.8.f.s.W = > ; 0.0.0.0.",
"9.:.;.;.;.;.;.;.;.;.;.;.;.> > ] 2.E >.p t A U ;.;.O > U ;.;.;.Z ; ; _ -.:.:.> :.:.5 >.>.:.:.;.( p # i d.;.;.;.;.;.>.> #.( H t :.",
"2.2.@.@.@.@.@.@.@.@.@.@.2.2.@.> > J o. .@.@.@.@.@.} ; P o.L o.o.r > u O.@.@.; @.@.d @.@.@.2.2.@.@.@.@.O.O.@.@.@.@.@.O.O.@.@.O.O.",
"W.Y.Y.Y.Y.Y.`.2.<.).Y.D.Y.Y.f b 7 N G.D.G.F.A.b.h.Y ; E.8 : l S.A.h 3 e.S.W.9 Y.: a.<.^.n z A.Y.Y.Y.Y.Y.Y.Y.D.D.Y.A.k i r.H.F.F.",
"0.0.0.0.0.0.:.@.,.T.0.0.0.f.0.0.9.0.0.0.0.^ ; ; 2 2 > q.0.> > R 0.9.f.~ f.8.0.> ; U ..c.T y.0.0.0.0.0.0.0.0.0.g.C.9.-.} e./ j 3 ",
"0.0.0.0.0.0.:.> > > > > 0.0.0.> 7.0.0.8.f.> f.f.F 2 Y.0.0.9.> g 8.9.0.0.8.s.0.~ T ( O.S.9.9.9.0.a.s.R x t.c & 3 1 7 @ s A.0.9.g.",
"0.0.0.0.0.0.:.@.,.U.0.0.> 0.0.9.> 9.^ f.> f.s.0.:.@.W.0.0.0.> 1 % x t.! j 3 ~ 0.9.:.,.S.f.R . ; ; : + x 7.9.5.! g . 2 < 7 S 9.0.",
"0.0.0.0.0.0.|..X2.Y.0.0.8.> 0.f.> 0.j.> x 0.0.0.:.@.W.0.0.0.0.> > > $ j : ; % 7.8.:...c.8.9.7.f.R % $ t.9.0.0.0.0.0.:. .v : 3 k ",
"0.0.0.0.0.|.|.|.,.Y.0.9.> 9.0.> > > > 0.0.0.0.0.:.@.Y.0.0.0.0.0.> . 5.9.T j g.f.9.:.J 0 9.0.0.0.0.9.f.S 0.0.0.0.0.0.:.@.Y.y.g + ",
"9.9.9.9.9.9.:.|.> > > > > > > > > 7.> 9.9.9.9.9.;.@.L.0.9.9.9.> : ^ 8.g.f.T 8.8.9.:.,.x.5.9.9.9.8.9.8.9.9.9.8.8.9.9.;.@.L.0.9.7.",
":.:.:.:.:.:.] @.2.{.> :.:.:.> > *.) :.:.:.:.:.:.> > > > > > > 2 Z *.%.F *.A -.*.:.] O.d.*.:.:.:.:.:.:.:.:.*.5 O ( -.` @.9.[.:.:.",
"<.3.O.,...,.,.2.> > ,.> ,.<.> > o.<.2.2.2.2.2.2.2.2.2.2.2.u ,.O.O.@.,.,.,.I  .O.,.,.,.L w L O.3.2.2.@.X. .@.I < 2.2.5 2.,.,.2.2.",
"_.H.P.> > m.K.J.A.b.b.x.P.P.> > <.^.G.Y.Y.Y.Y.Y.Y.Y.U.Y.> i.P.P.j.,..X|.A.m.u.J.P.Y.Y.P.i.3 : z l.C.<.~.b.x.S.w.> Y.Y.> Y.Y.Y.Y.",
"> T 7.5.5.> > > 8.7.8.0.> 7.> :.> > 0.0.0.0.0.0.0.> > > > ~ 0.9.>..X.X|.f.a.% 7.9.0.0.0.0.8.+ > ; O s x.5.8.0.0.0.> 0.0.> > > > ",
"> ; 3 . . + > S s.> 0.5.> > 9.:.> Y.0.0.0.0.0.0.0.> 0.> 2 > 8.9.;.o.% ; s.4.: % s.0.0.0.0.0.9.R % < > > % ! 8.0.0.0.> 0.0.0.> 0.",
"i.~ Q T > j j > 8.> 8.R > > 9.:.,.Y.0.0.0.0.0.0.> 0.0.1 ^ 8.7.0.;.u > 0.Q 7.S ; 1 t.9.0.0.0.0.9.7.%.X.p.> Q a.R 2 0.0.> 0.0.0.0.",
"D.0.0.9.> 8.9.> 0.> 0.0.> 0.9.:.,.Y.0.0.0.0.0.0.> 0.0.~ 8.f.8.9.( > Y.0.X f.5.$ > 2 Q 8.0.9.Q T Q ( ..K.8.> 0.9.~ 9.0.0.0.0.0.0.",
"Y.0.0.9.> 8.8.> 0.9.0.0.0.0.9.:.<.Y.0.0.0.0.0.0.0.0.0.8.> a.0.9.@ > Y.> > k 7.s.- R R T 5.8.% ; 3 < , 9 k s.> ; 0.0.0.0.0.0.0.0.",
"W.0.0.9.> 0.0.0.0.0.0.0.].0.9.:.,.Y.0.0.0.0.0.0.0.0.Q 8.> 5.9.7.Z ; > 0.0.: W 8.7.7.8.f.k $ : & g.%.5 > > > 7.7.0.0.0.0.0.0.0.0.",
"'.:.:.:.> :.:.:.:.:.;.:.:.:.;.[ 2.7.1.:.;.:.:.;.:.:.* >.> *.H $.  @.7.:.:.:.2 %.;.( Z #.$.2 > A >.   .+ > > #.%.:.:.:.;.:.:.:.:.",
",.2.@.@.@.@.@.@.@.O.2.@.@.@.@.@.@.2.@.|.@.@.@.> > > > > @.P ; s @.P ,.> > @.> K O. .; a @.s ; s @.K O.O.e s @.o.2.@.o.@.> > > 2.",
"Y.L.Y.W.W.W.7.2.<._.Y.Y.W.Y.W.W.D.W.Y.|.W.W.W.Y.'.2.> > F.i.o S.Y.Y.Y.Y.D.> > z P.g.: 4 z.A.8 w.F.n n.Y.F.9 n.F.Y.Y.h.> ).E.Y.Y.",
"0.0.0.0.0.0.:.@.<.G.0.0.0.0.0.0.0.0.|..X|.> 0.0.=.,.v.V.> 9.B.0.0.0.0.0.0.0.0.+ 9.[.e 0 R 9.c T 9.x 7 0.0.Q 2 t.0.9.2 O.N q.0.0.",
"0.0.0.0.0.0.;.@.2.I.0.0.0.0.0.0.0.0.0.0.0.0.> 0.:.@.x.0.> 8.0.0.0.0.0.0.0.0.0.> 7.*.L P.f.5.! x 8.T > s.0.9.1 3 s.9.: u 7 0.0.0.",
"0.0.0.0.0.0.:.@.2.Y.0.0.0.0.0.0.0.0.0.0.0.0.0.> > @.v.0.0.a.0.0.0.0.0.> 0.0.0.> 7.:...P.8.8.s.. f.s.2 + 0.0.Q > 3 a.> P 4 > 0.0.",
"0.0.0.0.0.0.:.@.2.Y.0.0.0.0.0.0.|.0.0.0.0.0.0.> > > i.0.0.7.0.0.0.0.0.0.> > > + 7.*.O.S.! 9.9.. R 8.R ; f.0.9.+ > 3 G O.x.k : 0.",
"0.0.0.0.0.0.:.@.2.Y.0.0.0.0.0..X0.|.> > > > > > > > > > 0.9.0.0.0.0.0.0.0.0.0.+ 5.=.,.S.g 7.0.s.+ s.7.- $ 8.0.5.7 > 2 s S.B.R : ",
"9.9.9.9.9.9.;.@.2.P.9.9.9.9.9.9.9.9.9.9.9.9.> 9.> < x.> 8.9.8.^ 8.9.9.9.9.9.9.3 h.*.,.J.a.8.9.8.R % 5.t.1 + 9.9.f.Q t < % s.7.D ",
":.:.:.:.:.:.[ @.2.9.:.:.:.:.:.:.:.:.:.:.:.:.:.> ; a j.F > :.:.-.;.:.:.:.:.:.:.: %.  O.d.*.:.:.*.*.@ U ;.Z ; @ :.%.*.` } 3 5 %.%.",
"<.3.2.2.2.,.,.2.,.3.,.,.3.,.2.2.@.<.2.2.2.2.2.> e O.> X.,.,.,.,. .@.<.,.,.,.,.; X.O.,.,.y ..,.u O. .6 X.O.J 2 ; 2.q I ,.I ; J ,.",
").U.Y.Y.Y.Y.Y.Y.Y.Y.Y.Y.Y.Y.P.9.3./.Y.Y.Y.Y.Y.> J.S.u.> b.m S.P.7.,._.|.|.Y.Y.; c.P.P.P.; ; Y.Y.u.g.y B A.Y.P.u.; Y.1 b.S.M b J.",
"E.q.0.9.0.0.0.0.0.0.0.0.0.0.0.:.,.G.0.0.0.0.> 8.y.~ 5.5.> ; + ].=.2.G. X> 0.0.$ 9.0.0.8.; > 0.0.. > X.1 % 9.0.9.a.: 0.. f.f.T 8.",
"W.0.0.0.0.0.0.0.0.0.0.0.0.0.'.:.,.Y.0.0.0.0.0.0.R j.5.k ; > > 0.:.2.W.0.0.> > R 9.9.9.g.; > 0.0.9.> ,.v > 2 f.0.0.a.: > S 8.5.7.",
"W.0.0.0.0.0.0.0.0.0.0.0.0.0.9.:.,.Y.0.0.0.9.0.0.0.5.k > 0.0.0.0.:.@.Y.0.0.> > > 7.0.0.a.> 0.0.0.> [.> m.> > ; a.0.0.Q > : t.9.t.",
"!.0.0.0.0.9.0.0.0.0.0.0.0.0.9.:.2.Y.0.0.0.0.0.9.0.0.0.0.0.0.0.0.:.@.W.0.> > > t.7.0.0.> > > 0.0.9.:.I P.j t.7 : s.0.0.. 0.. x 3 ",
"E.0.0.0.0.0.0.0.0.0.0.0.0.9.9.:.,.Y.0.0.0.0.0.0.0.0.0.0.0.0.0.9.:.@.Y.0.> > : s.9.0.9.j 0.0.> > 9.:.,.Y.s.0.8.T % 9.0.s.0.0.> > ",
"W.0.0.0.0.0.0.0.0.0.0.0.9.9.9.:.,.Y.0.0.0.0.0.0.0.0.0.].9.9.0.].:.@.> > 0.> $ 8.9.8.9.x 0.0.0.0.8.:.,.Y.0.0.0.9.8.8.0.9.9.0.0.0.",
"7.:.:.:.:.:.:.:.:.:.:.:.;.;.:.[ @.j.:.:.:.:.:.:.:.:.:.;.;.;.:.:.[ @.7.:.:.> Z :.#.%.:.A :.:.:.:.;.[ 2.`.:.;.>.>.;.:.:.:.:.:.:.:.",
"2.@.@.@.@.@.@.@.@.@.@.@.@.@.@.@.@.2.@.@.@.@.@.@.@.@.@.@.@.@.@.@.@.@.2.@.@.> u @.K | @.u > @.@.@.@.@.@.,.@.@.@.6 e | @.@.@.@.@.@."
};
