/* XPM */
static char *xpm_[] = {
/* columns rows colors chars-per-pixel */
"64 64 230 2 ",
"   c #233B23",
".  c #2B3C23",
"X  c #343C25",
"o  c #3B3B26",
"O  c #3D3C28",
"+  c #443C24",
"@  c #433B28",
"#  c #4A3D2A",
"$  c #563B28",
"%  c #5F3F30",
"&  c #683B2A",
"*  c #673D30",
"=  c #763D34",
"-  c #244424",
";  c #234A23",
":  c #2C4B22",
">  c #2C4626",
",  c #344423",
"<  c #364926",
"1  c #355125",
"2  c #395125",
"3  c #7D441D",
"4  c #6D5318",
"5  c #454D24",
"6  c #474A29",
"7  c #564426",
"8  c #435324",
"9  c #4B5324",
"0  c #4A5A26",
"q  c #5C5B25",
"w  c #595828",
"e  c #464C39",
"r  c #525832",
"t  c #65492A",
"y  c #78492B",
"u  c #645C25",
"i  c #6B5B28",
"p  c #785B29",
"a  c #7C4536",
"s  c #685538",
"d  c #7F5839",
"f  c #5B6123",
"g  c #636225",
"h  c #6D6425",
"j  c #6D6926",
"k  c #6C662A",
"l  c #746625",
"z  c #7C6326",
"x  c #756B25",
"c  c #7C6C25",
"v  c #7E6C29",
"b  c #746429",
"n  c #7E7027",
"m  c #7E6433",
"M  c #5E3A42",
"N  c #633A44",
"B  c #603745",
"V  c #5E4F4E",
"C  c #5E514D",
"Z  c #5F5345",
"A  c #5D4F53",
"S  c #5E5151",
"D  c #77454B",
"F  c #7B454B",
"G  c #7F4343",
"H  c #66524F",
"J  c #6A534D",
"K  c #6A5343",
"L  c #7B5145",
"P  c #735349",
"I  c #785249",
"U  c #645251",
"Y  c #695350",
"T  c #695850",
"R  c #634F4E",
"E  c #9C3B1C",
"W  c #AA3B0C",
"Q  c #B83D0E",
"!  c #A93C13",
"~  c #AA3B1B",
"^  c #A63E17",
"/  c #B43C18",
"(  c #983B27",
")  c #9D3D3D",
"_  c #953C35",
"`  c #893B2D",
"'  c #A93B25",
"]  c #AA3B2B",
"[  c #A33C28",
"{  c #B53C2D",
"}  c #BC3C2D",
"|  c #BF3A27",
" . c #AC3C36",
".. c #A53D3D",
"X. c #AA3B3C",
"o. c #B33B35",
"O. c #BA3B32",
"+. c #B13D3B",
"@. c #CD3B0B",
"#. c #C53C0A",
"$. c #D93B08",
"%. c #CA3B13",
"&. c #CC3C1E",
"*. c #C13E12",
"=. c #DC3C15",
"-. c #D63C1C",
";. c #D93C1A",
":. c #D53A14",
">. c #ED3B05",
",. c #E43B0C",
"<. c #EC3C0B",
"1. c #E63E05",
"2. c #F43C05",
"3. c #FC3B02",
"4. c #F23C09",
"5. c #E43B12",
"6. c #E93C10",
"7. c #CC3C23",
"8. c #C23B2C",
"9. c #C63B24",
"0. c #D13B20",
"q. c #9B4918",
"w. c #9C521C",
"e. c #975618",
"r. c #825A1C",
"t. c #A54417",
"y. c #BA4916",
"u. c #AD5D1C",
"i. c #A5571B",
"p. c #B7571A",
"a. c #B34D0D",
"s. c #89671E",
"d. c #99681E",
"f. c #A6641B",
"g. c #B0631D",
"h. c #994A2C",
"j. c #815C21",
"k. c #985725",
"l. c #8B443C",
"z. c #9B423C",
"x. c #95453A",
"c. c #87523A",
"v. c #945336",
"b. c #8C452F",
"n. c #A34626",
"m. c #BA4727",
"M. c #A65527",
"N. c #B65627",
"B. c #A6403C",
"V. c #A74432",
"C. c #826D25",
"Z. c #8D6B25",
"A. c #836D29",
"S. c #886526",
"D. c #926423",
"F. c #936D23",
"G. c #9B6A22",
"H. c #966726",
"J. c #857226",
"K. c #8A7226",
"L. c #837029",
"P. c #897528",
"I. c #907024",
"U. c #816830",
"Y. c #D4450D",
"T. c #DE460B",
"R. c #D94A0A",
"E. c #D5530E",
"W. c #DB520A",
"Q. c #CA441C",
"!. c #C84617",
"~. c #D44314",
"^. c #DB4413",
"/. c #D84A18",
"(. c #C25C15",
"). c #C5521C",
"_. c #CC5219",
"`. c #CA5515",
"'. c #DB5213",
"]. c #C8500D",
"[. c #EE4C06",
"{. c #E4460C",
"}. c #EB440A",
"|. c #E24A0B",
" X c #EA4B09",
".X c #E94606",
"XX c #FB4502",
"oX c #F54A04",
"OX c #FB4A05",
"+X c #F44B0C",
"@X c #F64707",
"#X c #E4520B",
"$X c #EA5309",
"%X c #E85306",
"&X c #F55305",
"*X c #FC5202",
"=X c #F25309",
"-X c #EC491C",
";X c #E74716",
":X c #F24913",
">X c #CF6C14",
",X c #F27818",
"<X c #F6770A",
"1X c #C34323",
"2X c #DC4B25",
"3X c #DE472F",
"4X c #DD4A2D",
"5X c #D44A28",
"6X c #DC4733",
"7X c #D54A32",
"8X c #DB4A32",
"9X c #DB5031",
"0X c #E34A24",
"qX c #E24A2C",
"wX c #E1472E",
"eX c #E14931",
"rX c #E04931",
"tX c #E24730",
"yX c #DC7727",
"uX c #E57725",
"iX c #EC7623",
"pX c #9E3F40",
"aX c #A43D40",
"sX c #A83B40",
"dX c #834545",
"fX c #81444A",
"gX c #8F4544",
"hX c #984240",
"jX c #815243",
"kX c #A74041",
/* pixels */
",XqX..F M A U U U U U U U U U U S H H U U U U U U U U U U U U U U S J H H U U H U U U U U U U U U U S H U U H U U U U U U U U U ",
",XqX..F B A 7X8X7X6X7X7X7X7X7X..T yX4X7X7X7X7X7X7X7X7X7X7X7X7X7Xz.U uX8X7X7X7X7X7X7X7X7X7X7X7X7X7X..T yX7X7X8X7X7X7X7X7X7X7X7X7X",
"qX+.X.X.X...X.X.X.X.X.X.X.X...fXH 7XX.X.X.X.X.X.X.X.X.X.X.X.X.X.F S 4X+.X.X.X.X.X.X.X.X.X.X.X.X...fXU 7XX.X.X.X.X.X.X.X.X.X.X.X.",
"eXX.X.X.X.X.X.X.X.X.X.X.X.X...F H 7XX.X.X.X.X.X.X.X.X.X.X.X.X.X.F S 6XX.X.X.X.X.X.X.X.X.X.X.X.X...F U 7XX.X.X.X.X.X.X.X.X.X.X.X.",
"eXX.X.X.X.X.X.X.X.X.X.X.X.X...F H 7XX.X.X.X.X.X.X.X.X.X.X.X.X.X.F S 8XX.X.X.X.X.X.X.X.X.X.X.X.X...F Y 6XX.X.X.X.X.X.X.X.X.X.X.X.",
"eX+.X.X.X.X.X.X.X.X.X.X.X.X...F U 7XX.X.X.X.X.X.X.X.X.X.X.X.X.X.F S 8XX.X.X.X.X.X.X.X.X.X.X.X.X...F T 7XX.X.X.X.X.X.X.X.X.X.X.X.",
"eXX.X.X.X.X.X.X.X.X.X.X.X.X...F H 7XX.X.X.X.X.X.X.X.X.X.X.X.X.X.F S 8XX.X.X.X.X.X.X.X.X.X.X.X.X...F H 7XX.X.X.X.X.X.X.X.X.X.X.X.",
"eXX.X.X.X.X.X.X.X.X...X.X.X...F H 7X....X.X.X.X.X.X.X.X.X.X.X...D S 8XX.X.X.X.X.X.X.X.X.X.X.X.X.aXF H 6XsXX.X.X.X.X.X.X.X.X.X.X.",
"aXF D D D D D D D D D D D D D N U z.F F F F D F F D F F F F D D N S ) F D D D F F F F D F F D F D N U hXF F F dXdXF F F F F F F ",
"U U U U S U S S S H U S U S U S S U S U S S S S S S C S S S S S V S U U U U U U S S S S U S S U S S S H S J v.'.'.M.C S S S S S ",
"6X8X8X8X8X8X) U T uXeX8X8X8X8X4XeXeX8XeX8X8X8X8XpXH iXqX8XeX8X8X8X8X8X8XeX8X8X8X6X..J uXeX8X8X8X4XeXeXqX-XOX|.;X/. X&.H iX4X8X8X",
"X.X.X.X.X.X.F S U 8XX.X.X.X.X.X.+.X.X.X.X.X.X.X.F S qX+.X.X.X.X.X.X.X.X.X.X.X.X.X.fXH 8XX.X.+.-.6.<.<.1.$.t.C.y / <.x.S rX+.X.+.",
"X.X.X.X.X.X.F S U 7XX.X.X.X.X.X.X.X.X.X.X.X.X.X.F S 8XX.X.X.X.X.X.X.X.X.X.X.X.X...F H 7X} -.T.(.! ~ ~ E & w A.*.,.} D S 8XX.X.X.",
"X.X.X.X.X.X.D S U 7XX.X.X.X.X.X.X.X.X.X.X.X.X.X.F S 8XX.X.X.X.X.X.X.X.X.X.X.X.X...F H -X3.2.F.Z..       X z i.,.o.X.D S 8XX.X.X.",
"X.X.X.X.X.X.D S U 7XX.X.X.X.X.X.X.X.X.X.X.X.X.X.D U 4XX.X.X.X.X.X.X.X.X.X.X.X.X...F v. XM.Z.P.9       . 7 Z.^.} X.X.F S rXX.X.X.",
"X.X.X.X.X.X.D S U 8XX.X.X.X.X.X.X.X.X.X.X.X.X.X.F U 8XX.X.X.X.X.X.X.X.X.X.X.X.X...fX`.F.C.A.l         o k.f.{ X.X.X.D S 6XX.X.X.",
"............D S U 7X..........................aXF A 6XX.....................sX....dXg.F.A.v 5       X t H.p.........D S 7XX.....",
"F F F F F F N S U B.F F F F F fXF F F F F F F F N S ..fXF F F F F F F F F F F F F = G.D.c x : - - > w A.G.V.F F F F N S ..fXF F ",
"J Y U H U H U H H H U U H H H U S H H H H U H H U U Y H H U U U U S T H H H H H H s d.J.L.0 : 1 8 k L.U.$XjXU U Y H H U H H H H ",
"iX8X7X7X7X8X4XqXqX4XqXqX4X6X7X..T yX4X6X7X7X7X7X7X8X7X7X7X7X7X7XpXH uX4X7X7X7X7Xm.5X`.K.F.G.G.F.F.k.p.<XOX4X7X7X7X7X7X7X7X7X2X/.",
"qX7.=.5.<.4.2.{.2.3.3.3.3.5.7.fXH 7XX.X.X.X.X.X.X.X.X.X.X.X.X.sXF S 4X+.X.X.X.X.X. .=.~.!.y.y.y.Q.Q.N.0Xo.X.X.X.X.X.X.X. .' ,.t.",
"tX7.>.>.Y.a.d.Z.Z.e.w.y.5.<.4.m.H 6XX.X.X.X.X.X.X.X.X.X.X.X.X.X.F S eXX.X.X.X.X.X.X.X.X.X.X.X.X...F H 7XX.X.X.X.X.X.X. .:.Y.F.J.",
"tX=.%.k.C.l u 5 9 w q c b * 9.Q.H 7XX.X.X.X.X.X.X.X.X.X.X.X.X.X.D S 8XX.X.X.X.X.X.X.X.X.X.X.X.X...F H 7XX.X.X.X.X.X.X.7.p.K.J.q ",
"qX2.k.L.w             < c u ^ Q.H 7XX.X.X.X.X.X.X.X.X.X.X.X.X.X.D S 8XX.X.X.X.X.X.X.X.X.X.X.X.X...F U 7XX.X.X.X.X.X.X.~.F.A.8   ",
"wXY.Z.c               . 6 A.a.V.U 7XX.X.X.X.X.X.X.X.X.X.X.X.X.sXF S 8XX.X.X.X.X.X.X.X.X.X.X.X.X...F H 7XX.X.X.X.X.X.X.!.Z.c <   ",
"4X~ w.v 9         . o # t Z.!.G U 7XX.X.X.X.X.X.X.X.X.X.X.....sXD S 7XX.X.X.X.X.X.X.X.X.X.X.X.X...F H 7X..X.X.X.X.X.X.Q.F.v <   ",
"..a T.j.C.h 9 < < 6 p A.Z.u.x.M U z.D D D F F F F F F F D F D D M C ) F D D F F D F F D F F D F D N U hXD D D D D D D V.g.J.q 8 ",
"U S k.E.(.s.L.A.C.K.d.(.`.c.S S S U S S U S S U S S U S S S S S S S H S S S U S S S S S S U U S U S S H S S U S S S S H _.G.A.A.",
"eX8X8X4X0X/.y.u.N.>X0X0X4X8X8X8XeX8X8X8X8X4XeXeX) H iXqX3X4X4X4XqXqXqXeXeX8XeX8X6X..J uX8X8X8X8X8X8X8XeX8X3X8X8X8X8XB.H ,X+X+X[.",
"X.X.X.X.X.X.F S H 9XX.X.X.X.X.+.X.X.X.X.+.X.X.X.F C 4X../ >.>.2.<.<.<.,.5.=.=.=.:.m.P 8X+.+.X.X.X.X.X.+.+.X.X.X.+.X.F S 4X+.O.O.",
"X.X.X.X.X.X.F S U 8XX.X...X.X.X.X.X.X.X...X.X...F C 4X{ #.! ( ( ' ' ' ' ' ~ ~ ^ t.~.'.4XX.X.X.X.X.X.X.X.X.X.X.X.X.X.D U 8XX.X.X.",
"X.X.X.X.X.X.F S H 7XX.X.X.X.X.X.X.X.X.X.X.X.o.o.x.c.;X@.W o . . . X o @ @ @ w v i a #X0XX.X.X.X.X.X.X.X.X.X.X.X.X.X.D U 8XX.X.X.",
"X.X.X.X.X.X.D S U 8Xo.} 8.} 9.;.&.} | =.5.>.4.2.}.E.|.~ +       . . X O # i A.k.t.^.$XqXX.X.X.X.X.X.X.X.X.X.X.X.X.X.D U 8XX.X.X.",
"X.X.X.o.O.} x.c.c.-X2.>.=.:.%.~ / #.#.~ ~ ' ] ' y w 6 .   . , 6 7 t t y S.S.w.2.5.m.c.7XX.X.X.X.X.X.X.X.X.X.o.X.X.X.D S 8X+.X.o.",
"..7.<.{.2.<.~.(.(.E.n.h.S.t $ @ @ $ $ O O o o X > ; 1 w u l A.Z.Z.Z.Z.H.M.^.4.7...F U 7X..............sX../ 1.=...sXD S 6XX.o.<.",
"1X{.D.A.c.a % v L.J.A.n g > - - - - - - - - - - > 0 A.S.r.e.y.T. X}.{.{.^.1Xx.F F N H kXF F F F F F F F l..X3 T.x.F M S ..gX^.y.",
"N.d A.r < > > 1 1 1 2 1 ; ; ; ; ; ; ; 1 ; : w l A.C.f.a.i.k.v.c.L P P P H H H H H H U H H H H H U U S H c.$Xt 4 e.H U U J _.p.b ",
",XN.S.< ; ; ; ; ; ; ; ; ; ; : , 2 q v K.H.G.F.f.].E./.7X7X7X7X7X) U uX8X7X7X6X8X7X7X7X7X7X7X7X8X7XB.J yX2XoX).t.|.2X7X7X4XoX5XA.",
"OXM.A.O                 9 i p v L.K.K.K.f.i.n.] ] ....X.X.X.X.X.F V 8XX.X.X.X.X.X.X.X.X.X.X.X.X...F H 7X..Q ! @ W :. .X.9.4.h.A.",
":X^.Z.u               w v p w.k.L.K.M.1X .X.X.X.X.X.X.X.X.X.X...D U 8XX...X.X.X.X.X.X.X.X.X.X.X...F H 7X) ] $.` ( ,.<.7.<.:.p l ",
"qX<.t.A.<         . g x t ' 2.p.J.N.X.X.X.X.X.X.X.X.X.X.X.X.X.X.F S 8XX.X.X.X.X.X.X.X.X.X.X.X.X...F H 7X..X.$.~ # ( / :.%._ b l ",
"tX8.<.D.w       + g l t.#.2.2.f.K.7XX.X.X.X.X.X.X.X.X.X.X.X.X.X.F S 6XX.X.X.X.X.X.X.X.X.X.X.X.X...F H 7XX.X.,.~ @ @ $ & & # v v ",
"eX8.3.w.x .   q.d.A.t.$.%.5.<.u.k.8XX.X.X.X.X.X.X.X.X.X.X.X.X.X.F S 8XX.X.X.X.X.X.X.X.X.X.X.X.X...F H 7XX.-.<.[ X . . . X u J.h ",
"3X8.3.T.A., 7 d.f.t.$./ X.X.8.}.#X8XX.X...X.X.X.X.X...X.X.X.X.sXF U 8XX.X.X.X.X.X.X.X.X.X.X.X.X...D H 4X=.>.' # .     5 c J.Z.w.",
"aXx.XX XC.8 C.f.oXY.b.D D D z.,.=XV.F D D F F D F D F F F F D D N S pXF F F F F D F F F F F F D D N H }.^.a e > - - g J.A.j.R.y.",
"U L =XW.L.j s.a.e.Z U H S S N._.=XL U U C S S S S S U U U U U U S S R U S S S U J P J P H U U U U A N.'.Z e < ; 1 x P.v a.#Xc.C ",
"8X3X@X|.I.v q.#Xs uX8XqXeXeX+X:XXXqX8XeXtXeX8X8XaXU iX4X4X8X8X8X8X8X8X8X8X8XqX:X@X4.$X<X+X:X-X0XqX-XOX2Xn.t 8 q L.J.e.W.<X0X8X8X",
"X.X.-.{.K.p 3 W.K 4XX.X.X.X.7.4.3.O.X.X.X.X.X.X.F H rX+.X.X.X.X.X.X.X.X.X.O.4.^.k.l.s 2X] &.<.2.4.4.' = 7 h L.J.Z.a.~.d qX+.X.X.",
"..X.} 3.i.^ T.M.H 7XX.X.X.X.X.5.3.8.X.X.X.X.X.sXD U eXX.X.X.X.X...X.X.X.X.} 2.h.K.s e y & = _ ] ' ] $ @ q x c k.,.:.dXS 8XX.X.X.",
"....X.-.5.:.x.S U 7XX.X.X.X.X.} 3.7.X.X.X.X.X.X.D S eX+.X.X.X.X.X.X.X.X.X.o.1.Z.J.w > < X O @ @ O o . 9 L.A.D.<.0.X.D S 8XX.X.X.",
"....X.X.X...F S U 7XX.X.X.X.X.o.3.;.X.X.X.X.X.X.F S 8XX.X.X.X.X.X.X.X.X.X...Q D.L.g ; ;           . u J.C.w.<.7.X.X.F S 8XX...X.",
"X.X.X.X.X.X.F S U 7XX.X.X.X.X.X.2.5.X.X.X.X.X.X.D S 8XX.X.X.X.X.X.X.X.X...` ~ t.v x : ;       . w v J.D.~.4.8.X.X.X.D S 8XX.X.-.",
"............D S H 7X........sXX.4.<.............D S 7XX.................) ) [ #.z L.8 ;     5 l c Z.i.<.&.o.........D S 6X} 6.}.",
"fXF F F F F N S U B.fXF F F F x.@X@XV.F F F F F N S sXdXF F F F F F F F F F l.}.p c j - 1 h v b C.g.Q.gXF F F F F F N L 7.@XoX3 ",
"J H U U U H H U H Y H U H H U v.$X&X&XI U U U U Y jXjXjXI I I I J S J H Y H H ).i.x n 0 c c A.A.(.M.U H U U U U Y L ).=X$X%X4 q ",
"iX8X7X7X7X7X7X7X7X7X7X7X7X6X7X} #X<XOX0X7X7X7X4X:XOXOXOXoXoXOXOX<._.,X2X4X7X7X4XE.F.c L.L.z ).+X-XsXJ yX7X7X7XqX-XOX+X|.R.y.1 x ",
"qX+.X.X.X.X.X.X.X.X.X.X.X.X.X.x.$XOX3.5.7.7.9.4.5.9.^ t.a.Q $.Y.R.E.R.<.>.} X.X.&.i.z h n.Q <.0.X.F H 7XX.X.7.2.5.&.@.W ` . , v ",
"eXX.X.X.X.X.X.X.X.X.X.X.X.X.sXF M.OX3.3.2.3.3.4.$.q.s.Z.Z.Z.w.K.C.c R.2.@.<.X.X.o.,.! W 1.%.o.X...F U 7XX.-.2.5.5.$.! $     2 J.",
"eXX.X.X.X.X.X.X.X.X.X.X.X.X...F H -X3.3.3.3.{.w.S.v q , , u x h v j S.@.3.3.{ X.X.} >.,.,. .X.X.sXF H 0X<.3.3.,.! E .       q P.",
"tXX.X.X.X.X.X.X.X.X.X.X.X.X...F H :X2.3.4.p.Z.l q ,         q L.J.c v ].3.3.] X.X.X.o.7.8.X.X.X...fXN.OX2.~ ( $             L.K.",
"qXX.X.X.X.X.X.X.X.X.X.X.X.X...dXM.OX4.}.p.Z.t X             > q P.L.G.1.3.3.] X.X.X.X.X.X.X.X.X.{ {.*XOX' * X             5 P.P.",
"eXX.X.X.X.o. .o.O.} } } 8.=.6.}.*X[.M.Z.A.t X               h J.L.4 |.2.3.3.=.;.;.;.;.;.;.;.5.4.3.XX*X;X` # .           > l P.J.",
"B.dXdXm.).`.y.].|.R.T.|.|.|. XY.u.Z.v w 6 > - - - : : 1 2 h J.P.p W.<.XXXXXXQ.Q.Q.Q.Q.^.{.@X[.#XE.u.m c.w 9 8 0 q g h x L.P.J.P.",
"'.'.(.F.A.C.L.L.v v v v A.L.A.L.x w j x j g 0 f g c L.L.P.K.P.A.e k._.*X*X&X$X$X$X$X'.).$X%XI.K.J.P.P.P.P.P.P.P.P.P.P.P.P.P.P.c "
};
